<svg xmlns="http://www.w3.org/2000/svg" xmlns:svg="http://www.w3.org/2000/svg" id="svg5199" width="760" height="800" version="1.1"><metadata id="metadata5204"/><g id="layer1" transform="translate(0,-252.36218)"><path id="path5197" fill="#f80" fill-opacity="1" stroke="none" d="m 380,345.29868 c -8.39592,0 -16.79184,1.98648 -23.43744,5.976 -14.86056,8.92248 -23.43744,45.53712 -23.43744,45.53712 l -14.06256,40.9836 c 40.6248,24.82224 81.25008,25.07976 121.87488,0 l -14.06232,-40.9836 c 0,0 -8.57736,-36.61416 -23.43768,-45.53712 -6.6456,-3.98952 -15.04152,-5.976 -23.43744,-5.976 z M 281.56256,547.08372 234.68744,683.6946 c 96.13344,60.22416 192.996,61.3932 290.62512,0 L 478.43744,547.08372 c -66.17664,47.82144 -131.8032,47.9724 -196.87488,0 z M 145.62512,738.33876 80,952.36218 l 600,0 -65.62488,-214.02342 -70.31256,0 9.37488,27.32208 c 0,0 7.78608,24.414 0,31.8756 -82.31736,78.89472 -265.66248,75.41352 -346.87488,-4.55352 -6.5844,-6.48336 0,-27.32208 0,-27.32208 l 9.37488,-27.32208 z" opacity=".914"/></g></svg>