<svg xmlns="http://www.w3.org/2000/svg" xmlns:svg="http://www.w3.org/2000/svg" id="svg4682" width="160" height="160" version="1.1"><defs id="defs4684"><filter id="filter3934-5-0" width="1.48" height="1.48" x="-.24" y="-.24" color-interpolation-filters="sRGB"><feGaussianBlur id="feGaussianBlur3936-8-3" stdDeviation="10"/></filter><filter id="filter3934-5-0-1" width="1.48" height="1.48" x="-.24" y="-.24" color-interpolation-filters="sRGB"><feGaussianBlur id="feGaussianBlur3936-8-3-3" stdDeviation="10"/></filter></defs><metadata id="metadata4687"/><g id="layer1" transform="translate(0,-892.36218)"><g id="g5275" transform="matrix(1.25,0,0,1.25,439.01289,739.86053)"><g id="g5237" fill="#f80" fill-opacity="1" filter="url(#filter3934-5-0-1)" transform="translate(-532.21031,-321.36086)"><path id="path5241" fill="#f80" fill-opacity="1" stroke="none" d="m 295,507.36218 c 0,27.61424 -22.38576,50 -50,50 -27.61424,0 -50,-22.38576 -50,-50 0,-27.61423 22.38576,-50 50,-50 27.61424,0 50,22.38577 50,50 z" opacity=".77"/><path id="path5243" fill="#f80" fill-opacity="1" stroke="none" d="m 270,507.36218 -37.5,21.65064 0,-43.30127 z"/></g><path id="path5203" fill="#2d2d2d" fill-opacity="1" stroke="none" d="m 295,507.36218 c 0,27.61424 -22.38576,50 -50,50 -27.61424,0 -50,-22.38576 -50,-50 0,-27.61423 22.38576,-50 50,-50 27.61424,0 50,22.38577 50,50 z" opacity=".9" transform="translate(-532.21031,-321.36086)"/><path id="path5205" fill="#fafafa" fill-opacity="1" stroke="none" d="m -307.19057,155.97371 0,10 -10,0 0,5 10,0 0,35 35,0 0,10 5,0 0,-10 10,0 0,-5 -10,0 0,-35 -35,0 0,-10 -5,0 z m 5,15 30,0 0,30 -30,0 0,-30 z m 7.8125,8.5625 a 1.4521819,1.4521819 0 0 0 -1.125,0.7813 l -5,10 a 1.4521819,1.4521819 0 0 0 -0.125,0.6562 l 0,7 a 1.4521819,1.4521819 0 0 0 1.4375,1.4375 l 24,0 a 1.4521819,1.4521819 0 0 0 1.4375,-1.4375 l 0,-6 a 1.4521819,1.4521819 0 0 0 -1.03125,-1.4062 l -7,-2 a 1.4521819,1.4521819 0 0 0 -1.3125,0.2812 l -3.625,2.9062 -6.1875,-11.4687 a 1.4521819,1.4521819 0 0 0 -1.46875,-0.75 z"/></g></g></svg>