<svg xmlns="http://www.w3.org/2000/svg" xmlns:svg="http://www.w3.org/2000/svg" id="svg4682" width="130" height="130" version="1.1"><metadata id="metadata4687"/><g id="layer1" transform="translate(0,-922.36218)"><path id="path11059" fill="#fafafa" fill-opacity="1" stroke="none" d="m 25.227921,960.7973 c -2.74908,0.0359 -5.22528,2.44044 -5.22792,5.07691 l 0,7.4378 c 0,1.32822 0.57504,2.64712 1.5552,3.58557 l 37.058761,35.53832 c 0.9786,0.9399 2.35392,1.4885 3.738959,1.4914 l 5.29404,0 c 1.38504,0 2.76036,-0.5515 3.73896,-1.4914 L 108.4448,976.89758 c 0.98004,-0.93845 1.5522,-2.25735 1.5552,-3.58557 l 0,-7.4378 c -0.012,-1.98892 -1.3566,-3.9133 -3.273,-4.67399 -1.9164,-0.76067 -4.28796,-0.31254 -5.76012,1.08842 l -35.503679,34.04698 -0.92652,0 L 29.033,962.28864 c -0.994199,-0.95494 -2.398079,-1.50519 -3.80508,-1.49134 z" opacity=".9"/></g></svg>