<svg xmlns="http://www.w3.org/2000/svg" xmlns:svg="http://www.w3.org/2000/svg" id="svg4682" width="130" height="130" version="1.1"><metadata id="metadata4687"/><g id="layer1" transform="translate(0,-922.36218)"><path id="path4499" fill="#fafafa" fill-opacity="1" fill-rule="nonzero" stroke="none" d="m 34.5,949.86219 c -1.108,0 -2,1.00279 -2,2.28125 l 0,47.71874 -3,0 c -1.108,0 -2,0.89202 -2,2.00002 l 0,6 c 0,1.108 0.892,2 2,2 l 3,0 0,12.6875 c 0,1.2785 0.892,2.3125 2,2.3125 l 6,0 c 1.108,0 2,-1.034 2,-2.3125 l 0,-12.6875 3,0 c 1.108,0 2,-0.892 2,-2 l 0,-6 c 0,-1.108 -0.892,-2.00002 -2,-2.00002 l -3,0 0,-47.71874 c 0,-1.27846 -0.892,-2.28125 -2,-2.28125 l -6,0 z m 27.5,0 c -1.108,0 -2,1.00285 -2,2.28125 l 0,12.71875 -3,0 c -1.108,0 -2,0.892 -2,2 l 0,6 c 0,1.108 0.892,2 2,2 l 3,0 0,47.68751 c 0,1.2785 0.892,2.3125 2,2.3125 l 6,0 c 1.108,0 2,-1.034 2,-2.3125 l 0,-47.68752 3,0 c 1.108,0 2,-0.892 2,-2 l 0,-6 c 0,-1.108 -0.892,-2 -2,-2 l -3,0 0,-12.71875 c 0,-1.2784 -0.892,-2.28125 -2,-2.28125 l -6,0 z m 27.5,0 c -1.108,0 -2,1.00285 -2,2.28125 l 0,32.71875 -3,0 c -1.108,0 -2,0.892 -2,2 l 0,5.99999 c 0,1.108 0.892,2 2,2 l 3,0 0,27.68752 c 0,1.2785 0.892,2.3125 2,2.3125 l 6,0 c 1.108,0 2,-1.034 2,-2.3125 l 0,-27.68752 3,0 c 1.108,0 2,-0.892 2,-2 l 0,-5.99999 c 0,-1.108 -0.892,-2 -2,-2 l -3,0 0,-32.71875 c 0,-1.2784 -0.892,-2.28125 -2,-2.28125 l -6,0 z"/></g></svg>