<svg xmlns="http://www.w3.org/2000/svg" xmlns:svg="http://www.w3.org/2000/svg" id="svg4682" width="130" height="130" version="1.1"><metadata id="metadata4687"/><g id="layer1" transform="translate(0,-922.36218)"><path id="rect5547-2" fill="#323232" fill-opacity="1" fill-rule="nonzero" stroke="none" d="m 34.499998,949.86216 c -1.108,0 -2,1.00279 -2,2.28125 l 0,47.71875 -3,0 c -1.108,0 -2,0.89204 -2,2.00004 l 0,6 c 0,1.108 0.892,2 2,2 l 3,0 0,12.6875 c 0,1.2784 0.892,2.3125 2,2.3125 l 6,0 c 1.108,0 2,-1.0341 2,-2.3125 l 0,-12.6875 3,0 c 1.108,0 2,-0.892 2,-2 l 0,-6 c 0,-1.108 -0.892,-2.00004 -2,-2.00004 l -3,0 0,-47.71875 c 0,-1.27846 -0.892,-2.28125 -2,-2.28125 l -6,0 z m 27.5,0 c -1.108,0 -2,1.00285 -2,2.28125 l 0,12.71875 -3,0 c -1.108,0 -2,0.892 -2,2 l 0,6 c 0,1.108 0.892,2 2,2 l 3,0 0,47.68754 c 0,1.2785 0.892,2.3125 2,2.3125 l 6,0 c 1.108,0 2,-1.034 2,-2.3125 l 0,-47.68754 3,0 c 1.108,0 2,-0.892 2,-2 l 0,-6 c 0,-1.108 -0.892,-2 -2,-2 l -3,0 0,-12.71875 c 0,-1.2784 -0.892,-2.28125 -2,-2.28125 l -6,0 z m 27.5,0 c -1.108,0 -2,1.00285 -2,2.28125 l 0,32.71875 -3,0 c -1.108,0 -2,0.892 -2,2 l 0,6 c 0,1.108 0.892,2 2,2 l 3,0 0,27.68754 c 0,1.2785 0.892,2.3125 2,2.3125 l 6,0 c 1.108003,0 2.000003,-1.034 2.000003,-2.3125 l 0,-27.68754 2.999999,0 c 1.108,0 2,-0.892 2,-2 l 0,-6 c 0,-1.108 -0.892,-2 -2,-2 l -2.999999,0 0,-32.71875 c 0,-1.2784 -0.892,-2.28125 -2.000003,-2.28125 l -6,0 z" opacity=".9"/></g></svg>