<svg xmlns="http://www.w3.org/2000/svg" xmlns:svg="http://www.w3.org/2000/svg" id="svg4682" width="130" height="130" version="1.1"><metadata id="metadata4687"/><g id="layer1" transform="translate(0,-922.36218)"><path id="path4828" fill="#f80" fill-opacity="1" fill-rule="nonzero" stroke="none" d="m 65,959.84657 c -13.8071,0 -25,11.1929 -25,24.99995 l 0,5.0313 -0.5,0 c -1.108,0 -2,0.892 -2,2 l 0,30.99998 c 0,1.108 0.892,2 2,2 l 51,0 c 1.108,0 2,-0.892 2,-2 l 0,-30.99998 c 0,-1.108 -0.892,-2 -2,-2 l -0.5,0 0,-5.0313 C 90,971.03947 78.8071,959.84657 65,959.84657 z m 0,10 c 7.9688,-0.013 15,7 15,14.99995 l 0,5.0313 -30,0 0,-5.0313 c 0,-7.99995 7,-14.99995 15,-14.99995 z" opacity=".9"/></g></svg>