<svg xmlns="http://www.w3.org/2000/svg" xmlns:svg="http://www.w3.org/2000/svg" id="svg4682" width="130" height="130" version="1.1"><metadata id="metadata4687"/><g id="layer1" transform="translate(0,-922.36218)"><path id="path4834" fill="#fafafa" fill-opacity="1" fill-rule="nonzero" stroke="none" d="m 65,949.86218 c -13.82438,0 -25.031289,11.20691 -25.031289,25.03129 l 0,4.91239 10.012516,0 0,-4.91239 c 0,-8.01001 7.008761,-15.01877 15.018773,-15.01877 7.978773,-0.013 15.018773,7.00876 15.018773,15.01877 l 0,14.92491 -40.550688,0 c -1.109387,0 -2.002503,0.89311 -2.002503,2.0025 l 0,31.03882 c 0,1.1094 0.893116,2.0025 2.002503,2.0025 l 51.06383,0 c 1.109387,0 2.002503,-0.8931 2.002503,-2.0025 l 0,-31.03882 c 0,-1.10939 -0.893116,-2.0025 -2.002503,-2.0025 l -0.500626,0 0,-14.92491 C 90.031289,961.06909 78.82438,949.86218 65,949.86218 z"/></g></svg>