<svg xmlns="http://www.w3.org/2000/svg" xmlns:svg="http://www.w3.org/2000/svg" id="svg4682" width="90" height="90" version="1.1"><metadata id="metadata4687"/><g id="layer1" transform="translate(0,-962.36218)"><path id="path5443" fill="#fafafa" fill-opacity="1" fill-rule="nonzero" stroke="none" d="m 37.55994,976.36218 c -0.457966,0 -0.826627,0.36868 -0.826627,0.82665 l 0,14.88006 c 0,0.45796 0.368661,0.82663 0.826627,0.82663 l 14.88,0 c 0.457966,0 0.826746,-0.36867 0.826746,-0.82663 l 0,-14.88006 c 0,-0.45797 -0.36878,-0.82665 -0.826746,-0.82665 l -14.88,0 z m 0,22.73338 c -0.457966,0 -0.826627,0.36866 -0.826627,0.82662 l 0,14.88002 c 0,0.458 0.368661,0.8268 0.826627,0.8268 l 14.88,0 c 0.457966,0 0.826746,-0.3688 0.826746,-0.8268 l 0,-14.88002 c 0,-0.45796 -0.36878,-0.82662 -0.826746,-0.82662 l -14.88,0 z m 0,22.73324 c -0.457966,0 -0.826627,0.3687 -0.826627,0.8268 l 0,14.88 c 0,0.458 0.368661,0.8266 0.826627,0.8266 l 14.88,0 c 0.457966,0 0.826746,-0.3686 0.826746,-0.8266 l 0,-14.88 c 0,-0.4581 -0.36878,-0.8268 -0.826746,-0.8268 l -14.88,0 z" opacity=".9"/></g></svg>