<svg xmlns="http://www.w3.org/2000/svg" xmlns:svg="http://www.w3.org/2000/svg" id="svg4682" width="130" height="130" version="1.1"><metadata id="metadata4687"/><g id="layer1" transform="translate(0,-922.36218)"><path id="path3935" fill="#fafafa" fill-opacity="1" stroke="none" d="m 2070.4375,1097.9688 a 0.4535309,0.4535309 0 0 0 -0.094,0.031 l -14.375,2.5625 a 0.4535309,0.4535309 0 0 0 -0.3126,0.6563 l 7.3126,13.5312 a 0.4535309,0.4535309 0 0 0 0.5,0.2188 l 9.5937,-1.6876 a 0.4535309,0.4535309 0 0 0 0.3437,-0.5312 l -2.5312,-14.4062 a 0.4535309,0.4535309 0 0 0 -0.4375,-0.375 z m -23.9687,4.25 a 0.4535309,0.4535309 0 0 0 -0.094,0.031 l -14.375,2.5312 a 0.4535309,0.4535309 0 0 0 -0.3125,0.6563 l 7.3125,13.5313 a 0.4535309,0.4535309 0 0 0 0.5,0.2187 l 14.4062,-2.5313 a 0.4535309,0.4535309 0 0 0 0.3126,-0.6562 l -7.3438,-13.5312 a 0.4535309,0.4535309 0 0 0 -0.4062,-0.25 z m -23.9688,4.2187 a 0.4535309,0.4535309 0 0 0 -0.094,0.031 l -14.375,2.5624 a 0.4535309,0.4535309 0 0 0 -0.3124,0.6563 l 7.3124,13.5 a 0.4535309,0.4535309 0 0 0 0.5,0.2187 l 14.4063,-2.5312 a 0.4535309,0.4535309 0 0 0 0.3125,-0.6562 l -7.3438,-13.5313 a 0.4535309,0.4535309 0 0 0 -0.4062,-0.25 z m -21.6562,3.1875 a 0.4535309,0.4535309 0 0 0 -0.3126,0.4375 l 0,14.5937 0,14.5938 0,22.375 0,4.875 c 0,2.9394 2.4032,5.3438 5.3438,5.3438 l 63.25,0 c 2.9406,0 5.3437,-2.4044 5.3438,-5.3438 l 0,-4.875 0,-22.375 0,-14.5938 A 0.4535309,0.4535309 0 0 0 2074,1124.1875 l -9.7188,0 a 0.4535309,0.4535309 0 0 0 -0.4374,0.3125 l -4.7813,14.2812 -8.75,0 4.6563,-13.9687 a 0.4535309,0.4535309 0 0 0 -0.4376,-0.625 l -14.5937,0 A 0.4535309,0.4535309 0 0 0 2039.5,1124.5 l -4.7812,14.2812 -8.7188,0 4.625,-13.9687 a 0.4535309,0.4535309 0 0 0 -0.4375,-0.625 l -14.5937,0 a 0.4535309,0.4535309 0 0 0 -0.4376,0.3125 l -4.7812,14.2812 -8.7188,0 4.6563,-13.9687 a 0.4535309,0.4535309 0 0 0 0,-0.3125 l -4.875,-14.5938 a 0.4535309,0.4535309 0 0 0 -0.5937,-0.2812 z" transform="matrix(1.217231,0,0,1.2182741,-2415.1083,-395.26477)"/></g></svg>