<svg xmlns="http://www.w3.org/2000/svg" xmlns:svg="http://www.w3.org/2000/svg" id="svg4682" width="130" height="130" version="1.1"><metadata id="metadata4687"/><g id="layer1" transform="translate(0,-922.36218)"><path id="path3937" fill="#fafafa" fill-opacity="1" stroke="none" d="m 1683.9062,248.59375 a 0.96879686,0.96879686 0 0 0 -0.094,0.0312 l -8.1563,1.8125 -32.375,7.21875 -0.2187,0.0312 0,0.0312 c -0.6888,0.05 -1.3243,0.25197 -2,0.59375 -0.7494,0.37904 -1.4994,0.87443 -2.0625,1.4375 -1.1342,1.1341 -1.1874,2.50045 -1.1875,3.40625 l 0,40.59375 c -1.6991,0.10665 -3.4491,0.4539 -5.1563,1.25 -6.0416,2.81722 -9.2937,9.16131 -6.9062,14.28125 2.3862,5.11723 9.3051,6.69086 15.3438,3.875 4.8855,-2.2782 7.9449,-6.80018 7.6874,-11.21875 -0,-0.0207 0,-0.0418 0,-0.0625 l 0,-39.90625 25.2188,-5.625 0,28.34375 c -1.7077,0.1137 -3.4519,0.48649 -5.1562,1.28125 -6.0402,2.81656 -9.2604,9.13494 -6.875,14.25 2.3862,5.1172 9.305,6.69085 15.3437,3.875 4.8856,-2.2782 7.9451,-6.80014 7.6875,-11.21875 -0,-0.0207 0,-0.0418 0,-0.0625 l 0,-39.65625 0,-4.53125 0,-4.53125 0,-4.53125 a 0.96879686,0.96879686 0 0 0 -1.0938,-0.96875 z" transform="matrix(1.1849171,0,0,1.1849171,-1896.0245,647.8088)"/></g></svg>