<svg xmlns="http://www.w3.org/2000/svg" xmlns:svg="http://www.w3.org/2000/svg" id="svg4682" width="130" height="130" version="1.1"><metadata id="metadata4687"/><g id="layer1" transform="translate(0,-922.36218)"><path id="path5672" fill="#fafafa" fill-opacity="1" fill-rule="nonzero" stroke="none" d="m 1575.6562,549.90625 c -1.5458,-0.0643 -3.0876,-0.0104 -4.5937,0.125 3.1328,1.46241 5.965,3.23857 8.375,5.3125 -3.1888,1.20532 -6.0233,2.84313 -8.4687,4.75 2.4698,-0.32553 5.0099,-0.26784 7.5937,0.1875 13.5973,2.39766 22.71,15.34018 20.3125,28.9375 -0.8276,4.69352 -2.9407,8.85544 -5.875,12.1875 l -2.25,-3.90625 -10.4062,17.96875 10.625,0 0.031,0.125 c 0.074,-0.0403 0.1454,-0.0838 0.2188,-0.125 l 9.9062,0 -2.9375,-5.0625 c 5.3252,-4.99364 9.166,-11.69515 10.5313,-19.4375 3.3563,-19.0363 -9.37,-37.1746 -28.4063,-40.53125 -1.5605,-0.27517 -3.1104,-0.46699 -4.6563,-0.53125 z m -28.3437,4.3125 2.9687,5.1875 c -5.3306,4.98765 -9.1343,11.66214 -10.5,19.40625 -3.3565,19.03635 9.3385,37.20573 28.375,40.5625 3.1081,0.54811 6.1873,0.67245 9.1876,0.40625 -3.1144,-1.45864 -5.9142,-3.28031 -8.3126,-5.34375 3.1885,-1.20623 6.0231,-2.84334 8.4688,-4.75 -2.4701,0.32532 -5.0099,0.29927 -7.5938,-0.15625 -13.5975,-2.39756 -22.7102,-15.40263 -20.3124,-29 0.8279,-4.6962 2.9343,-8.8291 5.875,-12.15625 l 2.2187,3.84375 10.4063,-17.96875 -10.625,-0.0312 c -0.018,0.0102 -0.043,0.0212 -0.063,0.0312 l -10.0937,-0.0312 z" transform="matrix(1.2854819,0,0,1.2850386,-1958.6692,235.74613)"/></g></svg>