<svg xmlns="http://www.w3.org/2000/svg" xmlns:svg="http://www.w3.org/2000/svg" id="svg4682" width="130" height="130" version="1.1"><metadata id="metadata4687"/><g id="layer1" transform="translate(0,-922.36218)"><path id="path4074" fill="#fafafa" fill-opacity="1" stroke="#323232" stroke-dasharray="none" stroke-miterlimit="4" stroke-opacity="1" stroke-width="2" d="m 64.999999,948.30578 c -1.0495,0 -2.099,0.25559 -2.9297,0.7691 -1.8576,1.148 -2.9297,5.85929 -2.9297,5.85929 l -1.7578,5.27351 c 5.0781,3.1938 10.1562,3.2271 15.2343,0 l -1.7578,-5.27351 c 0,0 -1.0721,-4.7113 -2.9297,-5.85929 -0.8307,-0.51351 -1.8802,-0.7691 -2.9296,-0.7691 z m -12.3047,25.96441 -5.8594,17.5781 c 12.0167,7.74919 24.1245,7.89969 36.3281,0 l -5.8594,-17.5781 c -8.272,6.1532 -16.4754,6.1727 -24.6093,0 z m -16.9922,24.6093 -8.2031,27.53911 75.000001,0 -8.203199,-27.53911 -8.789002,0 1.1718,3.51571 c 0,0 0.9733,3.1413 0,4.1015 -10.2896,10.1516 -33.2078,9.7037 -43.3593,-0.5859 -0.8231,-0.8342 0,-3.5156 0,-3.5156 l 1.1718,-3.51571 -8.789,0 z"/></g></svg>