<svg xmlns="http://www.w3.org/2000/svg" xmlns:svg="http://www.w3.org/2000/svg" id="svg4682" width="130" height="130" version="1.1"><metadata id="metadata4687"/><g id="layer1" transform="translate(0,-922.36218)"><path id="path3931" fill="#fafafa" fill-opacity="1" fill-rule="nonzero" stroke="none" d="m 64.999998,942.36218 c -24.852713,0 -44.999988,20.14718 -44.999988,45 0,24.85282 20.147275,45.00002 44.999988,45.00002 24.852831,0 44.999992,-20.1472 44.999992,-45.00002 0,-24.85282 -20.147161,-45 -44.999991,-45 z m 0,12.85714 c 17.752191,0 32.142831,14.39084 32.142831,32.14286 0,17.75202 -14.39064,32.14282 -32.142831,32.14282 -17.751835,0 -32.142711,-14.3908 -32.142831,-32.14282 0,-17.75202 14.390996,-32.14286 32.142831,-32.14286 z m 0,6.42857 c -1.77504,0 -5.142719,2.08195 -5.142839,3.85714 l 0,21.85715 c 0,0.2219 0.066,0.4338 0.16068,0.6429 -0.0132,0.6237 0.1152,1.1611 0.48216,1.5267 l 11.732157,11.73222 c 1.256283,1.2543 5.092923,0.3313 6.348363,-0.9242 1.2552,-1.25522 2.18051,-5.09422 0.924,-6.34822 l -9.361682,-9.3615 0,-19.12505 c 0,-1.77519 -3.367559,-3.85714 -5.142838,-3.85714 z"/></g></svg>