<svg xmlns="http://www.w3.org/2000/svg" xmlns:svg="http://www.w3.org/2000/svg" id="svg4682" width="130" height="130" version="1.1"><metadata id="metadata4687"/><g id="layer1" transform="translate(0,-922.36218)"><path id="path4080" fill="#fafafa" fill-opacity="1" stroke="#323232" stroke-dasharray="none" stroke-miterlimit="4" stroke-opacity="1" stroke-width="2" d="m 88.48052,949.90628 c -0.4653,-0.01 -0.9981,0.5417 -1,1 l 0,52.00002 -4,0 c -0.6986,5e-4 -1.1559,0.8605 -0.8125,1.4687 l 9,20 c 0.3488,0.6156 1.4012,0.6156 1.75,0 l 9,-20 c 0.3434,-0.6083 -0.2389,-1.4682 -0.9375,-1.4687 l -4,0 0,-52.00002 c 0,-0.5228 -0.4772,-0.9971 -1,-1 -6.3823,-0.065 -2.5506,0.066 -8,0 z m -59.000001,6 c -1.108,0 -2,0.892 -2,2 l 0,8 c 0,1.108 0.892,2 2,2 l 11.000001,0 c 1.108,0 2,-0.892 2,-2 l 0,-8 c 0,-1.108 -0.892,-2 -2,-2 l -11.000001,0 z m 0,17 c -1.1031,0 -2,0.8656 -2,1.9688 l 0,8.0312 c 0,1.1031 0.8969,2 2,2 l 21.000001,0 c 1.1031,0 2,-0.8969 2,-2 l 0,-8.0312 c 0,-1.1032 -0.8969,-1.9688 -2,-1.9688 l -21.000001,0 z m 0,17 c -1.108,0 -2,0.892 -2,2 l 0,8 c 0,1.10802 0.892,2.00002 2,2.00002 l 31.000001,0 c 1.108,0 2,-0.892 2,-2.00002 l 0,-8 c 0,-1.108 -0.892,-2 -2,-2 l -31.000001,0 z m 0,16.99992 c -1.108,0 -2,0.892 -2,2 l 0,8 c 0,1.108 0.892,2 2,2 l 41.000001,0 c 1.108,0 2,-0.892 2,-2 l 0,-8 c 0,-1.108 -0.892,-2 -2,-2 l -41.000001,0 z"/></g></svg>