<svg xmlns="http://www.w3.org/2000/svg" xmlns:svg="http://www.w3.org/2000/svg" id="svg4682" width="130" height="130" version="1.1"><defs id="defs4684"><filter id="filter6548" width="1.335" height="1.388" x="-.168" y="-.194" color-interpolation-filters="sRGB"><feGaussianBlur id="feGaussianBlur6550" stdDeviation="7.679"/></filter><filter id="filter7003" width="1.333" height="1.392" x="-.166" y="-.196" color-interpolation-filters="sRGB"><feGaussianBlur id="feGaussianBlur7005" stdDeviation="6.911"/></filter><filter id="filter3788" width="1.444" height="1.522" x="-.222" y="-.261"><feGaussianBlur id="feGaussianBlur3790" stdDeviation="9.214"/></filter><filter id="filter7110" width="1.444" height="1.522" x="-.222" y="-.261" color-interpolation-filters="sRGB"><feGaussianBlur id="feGaussianBlur7112" stdDeviation="9.214"/></filter></defs><metadata id="metadata4687"/><g id="layer1" transform="translate(0,-922.36218)"><g id="g3811" transform="translate(125.58918,0.61403587)"><path id="path6546-5" fill="#f80" fill-opacity="1" fill-rule="nonzero" stroke="none" d="m 655.53125,642.53125 c 0.24746,-0.0169 -1.33321,0.25171 -1.09375,0.1875 a 4.824674,4.824674 0 0 0 -0.21875,0.0625 c 0.19739,-0.0627 -1.05957,0.43731 -0.875,0.34375 0.18457,-0.0936 -0.94818,0.62191 -0.78125,0.5 0.16693,-0.12191 -0.86374,0.77199 -0.71875,0.625 0.14499,-0.14699 -0.7131,0.85568 -0.59375,0.6875 0.11935,-0.16818 -0.55947,0.99747 -0.46875,0.8125 0.0907,-0.18497 -0.40357,1.07196 -0.34375,0.875 0.0598,-0.19696 -0.24621,1.11016 -0.21875,0.90625 0.0238,-0.17675 -0.0137,0.68071 -0.0312,0.8125 -0.003,0.0203 7.4e-4,0.15239 0,0.125 l 0,72.9375 a 4.824674,4.824674 0 0 0 0,0.15625 c -0.005,-0.16033 0.088,0.87717 0.0625,0.71875 -0.0255,-0.15842 0.20141,0.87279 0.15625,0.71875 -0.0452,-0.15404 0.31414,0.83475 0.25,0.6875 -0.0641,-0.14725 0.42591,0.7944 0.34375,0.65625 -0.0822,-0.13815 0.50517,0.72062 0.40625,0.59375 -0.0989,-0.12687 0.58292,0.67605 0.46875,0.5625 -0.11417,-0.11355 0.69014,0.56715 0.5625,0.46875 -0.12764,-0.0984 0.73286,0.4879 0.59375,0.40625 -0.13911,-0.0816 0.80464,0.40731 0.65625,0.34375 -0.14839,-0.0636 0.84279,0.29441 0.6875,0.25 -0.15529,-0.0444 0.87846,0.18078 0.71875,0.15625 -0.15971,-0.0245 0.91155,0.0667 0.75,0.0625 -0.16155,-0.004 0.87954,-0.0474 0.71875,-0.0312 -0.16079,0.0161 0.87618,-0.16123 0.71875,-0.125 -0.15743,0.0362 0.8703,-0.27448 0.71875,-0.21875 -0.15155,0.0557 0.79949,-0.35554 0.65625,-0.28125 a 4.824674,4.824674 0 0 0 0.1875,-0.0937 L 675.1875,717 l 0,4.40625 a 4.824674,4.824674 0 0 0 0,0.15625 c -0.005,-0.16033 0.088,0.87717 0.0625,0.71875 -0.0255,-0.15842 0.20141,0.87279 0.15625,0.71875 -0.0452,-0.15404 0.31414,0.83475 0.25,0.6875 -0.0641,-0.14725 0.42591,0.7944 0.34375,0.65625 -0.0822,-0.13815 0.50517,0.72062 0.40625,0.59375 -0.0989,-0.12687 0.58292,0.67605 0.46875,0.5625 -0.11417,-0.11355 0.69014,0.56715 0.5625,0.46875 -0.12764,-0.0984 0.73286,0.4879 0.59375,0.40625 -0.13911,-0.0816 0.80464,0.40731 0.65625,0.34375 -0.14839,-0.0636 0.84279,0.29441 0.6875,0.25 -0.15529,-0.0444 0.87846,0.18078 0.71875,0.15625 -0.15971,-0.0245 0.91155,0.0667 0.75,0.0625 -0.16155,-0.004 0.87954,-0.0474 0.71875,-0.0312 -0.16079,0.0161 0.87618,-0.16123 0.71875,-0.125 -0.15743,0.0362 0.8703,-0.27448 0.71875,-0.21875 -0.15155,0.0557 0.79949,-0.35554 0.65625,-0.28125 a 4.824674,4.824674 0 0 0 0.1875,-0.0937 l 36.34375,-21 0,14.9375 c 0,3.69716 3.11534,6.8125 6.8125,6.8125 l 16,0 c 3.69716,0 6.8125,-3.11534 6.8125,-6.8125 l 0,-34.90625 0,-0.46875 c -6.4e-4,-0.1076 -6.4e-4,-0.0799 0,-0.1875 l 0,-0.46875 0,-34.96875 c 0,-3.69716 -3.11534,-6.8125 -6.8125,-6.8125 l -16,0 c -3.69716,0 -6.8125,3.11534 -6.8125,6.8125 l 0,15 -36,-20.8125 -0.34375,-0.21875 0,0.0312 c -0.3528,-0.18873 -0.84432,-0.44231 -0.6875,-0.375 0.23523,0.10097 -1.34457,-0.396 -1.09375,-0.34375 0.25082,0.0522 -1.41253,-0.12635 -1.15625,-0.125 0.25628,0.001 -1.40761,0.17461 -1.15625,0.125 a 4.824674,4.824674 0 0 0 -0.53125,0.125 c 0.19739,-0.0627 -1.05957,0.43731 -0.875,0.34375 0.18457,-0.0936 -0.94818,0.62191 -0.78125,0.5 0.16693,-0.12191 -0.86374,0.77199 -0.71875,0.625 0.14499,-0.14699 -0.7131,0.85568 -0.59375,0.6875 0.11935,-0.16818 -0.55947,0.99747 -0.46875,0.8125 0.0907,-0.18497 -0.40357,1.07196 -0.34375,0.875 0.0598,-0.19696 -0.24621,1.11016 -0.21875,0.90625 0.0238,-0.17675 -0.0137,0.68071 -0.0312,0.8125 -0.003,0.0203 7.4e-4,0.15239 0,0.125 l 0,4.34375 -16.34375,-9.46875 c -0.19219,-0.11923 -0.41854,-0.22594 -0.34375,-0.1875 0.17417,0.0895 -0.99843,-0.40573 -0.8125,-0.34375 0.18593,0.062 -1.03706,-0.25166 -0.84375,-0.21875 0.19331,0.0329 -1.10235,-0.0655 -0.90625,-0.0625 a 4.824674,4.824674 0 0 0 -0.40625,0 z" filter="url(#filter7110)" transform="matrix(1.0037535,0,0,1.0040081,-763.2161,299.14586)"/><g id="g7118" transform="translate(-760.58918,301.88596)"><path id="path6256-5" fill="#4b4b4b" fill-opacity="1" fill-rule="nonzero" stroke="none" d="m 519.8125,550.6875 a 0.70275342,0.70275342 0 0 0 -0.5,0.6875 l 0,51.96875 a 0.70275342,0.70275342 0 0 0 1.03125,0.59375 l 45,-25.96875 a 0.70275342,0.70275342 0 0 0 0,-1.1875 l -45,-26 a 0.70275342,0.70275342 0 0 0 -0.53125,-0.0937 z" transform="matrix(1.4021244,0,0,1.4058474,-73.140515,-126.79675)"/><path id="path6259-4" fill="#4b4b4b" fill-opacity="1" fill-rule="nonzero" stroke="none" d="m 519.8125,550.6875 a 0.70275342,0.70275342 0 0 0 -0.5,0.6875 l 0,51.96875 a 0.70275342,0.70275342 0 0 0 1.03125,0.59375 l 45,-25.96875 a 0.70275342,0.70275342 0 0 0 0,-1.1875 l -45,-26 a 0.70275342,0.70275342 0 0 0 -0.53125,-0.0937 z" transform="matrix(1.4021244,0,0,1.4058474,-48.14052,-126.79675)"/><rect id="rect6292-5" width="20" height="75" x="725" y="647.362" fill="#4b4b4b" fill-opacity="1" fill-rule="nonzero" stroke="none" stroke-width="10" color="#000" display="inline" enable-background="accumulate" overflow="visible" rx="2" ry="2" visibility="visible" style="marker:none"/></g></g></g></svg>