<svg xmlns="http://www.w3.org/2000/svg" xmlns:svg="http://www.w3.org/2000/svg" id="svg4682" width="160" height="160" version="1.1"><defs id="defs4684"><filter id="filter3934-5-0" width="1.48" height="1.48" x="-.24" y="-.24" color-interpolation-filters="sRGB"><feGaussianBlur id="feGaussianBlur3936-8-3" stdDeviation="10"/></filter><filter id="filter3934-5-0-1" width="1.48" height="1.48" x="-.24" y="-.24" color-interpolation-filters="sRGB"><feGaussianBlur id="feGaussianBlur3936-8-3-4" stdDeviation="10"/></filter></defs><metadata id="metadata4687"/><g id="layer1" transform="translate(0,-892.36218)"><g id="g5205" transform="matrix(1.25,0,0,1.25,589.20272,739.86053)"><g id="g5121" fill="#f80" fill-opacity="1" filter="url(#filter3934-5-0-1)" transform="translate(-652.36218,-321.36086)"><path id="path5124" fill="#f80" fill-opacity="1" stroke="none" d="m 295,507.36218 c 0,27.61424 -22.38576,50 -50,50 -27.61424,0 -50,-22.38576 -50,-50 0,-27.61423 22.38576,-50 50,-50 27.61424,0 50,22.38577 50,50 z" opacity=".77"/><path id="path5129" fill="#f80" fill-opacity="1" stroke="none" d="m 270,507.36218 -37.5,21.65064 0,-43.30127 z"/></g><g id="g5131" transform="translate(12.63782,103.88414)"><g id="g5135" transform="translate(0,-90.245007)"><path id="path5145" fill="#2d2d2d" fill-opacity="1" stroke="none" d="m -370,172.36219 c 0,27.61424 -22.3858,50 -50,50 -27.6142,0 -50,-22.38576 -50,-50 0,-27.61423 22.3858,-50 50,-50 27.6142,0 50,22.38577 50,50 z" opacity=".9"/><path id="path5148" fill="#fafafa" fill-opacity="1" fill-rule="nonzero" stroke="none" stroke-width=".5" d="m -420,142.375 c -16.5685,0 -30,13.43146 -30,30 0,16.56854 13.4315,30 30,30 0.7058,0 1.40195,-0.0465 2.09375,-0.0937 l 0,-0.1875 0,-4.8125 c -0.6925,0.0533 -1.38805,0.0937 -2.09375,0.0937 -13.8071,0 -25,-11.19288 -25,-25 0,-13.80712 11.1929,-25 25,-25 13.8071,0 25,11.19288 25,25 0,2.50374 -0.3767,4.90731 -1.0625,7.1875 l 3.90625,3.90625 c 1.3738,-3.43433 2.15625,-7.16886 2.15625,-11.09375 0,-16.56854 -13.4315,-30 -30,-30 z m -8.875,9.3125 c -1.2572,0.54097 -2.46725,1.21757 -3.59375,1.96875 l 6.90625,10.375 c 0.5101,-0.34143 1.0544,-0.59956 1.625,-0.84375 l -4.9375,-11.5 z m -7.03125,4.75 c -4.0717,4.0717 -6.59375,9.7243 -6.59375,15.9375 l 12.5,0 c 0,-2.75325 1.1373,-5.25414 2.9375,-7.0625 l 0,-0.0312 -8.84375,-8.84375 z M -420,164.875 c -4.1421,0 -7.5,3.35786 -7.5,7.5 0,4.14214 3.3579,7.5 7.5,7.5 4.1421,0 7.5,-3.35786 7.5,-7.5 0,-4.14214 -3.3579,-7.5 -7.5,-7.5 z m 14,8.4375 -15.78125,15.78125 2.78125,2.78125 13,-12.96875 13,12.96875 2.78125,-2.78125 L -406,173.3125 z m 0,7.4375 -9.28125,9.28125 0,12.0625 6.5,0 0,-10.21875 5.5625,0 0,10.21875 6.5,0 0,-12.0625 L -406,180.75 z" color="#000" display="inline" enable-background="accumulate" overflow="visible" visibility="visible" style="marker:none"/></g></g></g></g></svg>