<svg xmlns="http://www.w3.org/2000/svg" xmlns:svg="http://www.w3.org/2000/svg" id="svg4682" width="130" height="130" version="1.1"><metadata id="metadata4687"/><g id="layer1" transform="translate(0,-922.36218)"><g id="g3008" transform="translate(44.107142,31.249995)"><path id="path5969" fill="#fafafa" fill-opacity="1" fill-rule="nonzero" stroke="none" d="m 519.8125,550.6875 a 0.70275342,0.70275342 0 0 0 -0.5,0.6875 l 0,51.96875 a 0.70275342,0.70275342 0 0 0 1.03125,0.59375 l 45,-25.96875 a 0.70275342,0.70275342 0 0 0 0,-1.1875 l -45,-26 a 0.70275342,0.70275342 0 0 0 -0.53125,-0.0937 z" transform="matrix(1.4021244,0,0,1.4058474,-752.24766,144.45325)"/><path id="path5971" fill="#fafafa" fill-opacity="1" fill-rule="nonzero" stroke="none" d="m 519.8125,550.6875 a 0.70275342,0.70275342 0 0 0 -0.5,0.6875 l 0,51.96875 a 0.70275342,0.70275342 0 0 0 1.03125,0.59375 l 45,-25.96875 a 0.70275342,0.70275342 0 0 0 0,-1.1875 l -45,-26 a 0.70275342,0.70275342 0 0 0 -0.53125,-0.0937 z" transform="matrix(1.4021244,0,0,1.4058474,-727.24766,144.45325)"/><rect id="rect5973" width="20" height="75" x="45.893" y="918.612" fill="#fafafa" fill-opacity="1" fill-rule="nonzero" stroke="none" stroke-width="10" color="#000" display="inline" enable-background="accumulate" overflow="visible" rx="2" ry="2" visibility="visible" style="marker:none"/></g></g></svg>