<svg xmlns="http://www.w3.org/2000/svg" xmlns:svg="http://www.w3.org/2000/svg" id="svg4682" width="160" height="160" version="1.1"><defs id="defs4684"><filter id="filter3934" width="1.48" height="1.48" x="-.24" y="-.24" color-interpolation-filters="sRGB"><feGaussianBlur id="feGaussianBlur3936" stdDeviation="10"/></filter></defs><metadata id="metadata4687"/><g id="layer1" transform="translate(0,-892.36218)"><g id="g3940" transform="matrix(1.25,0,0,1.25,-520.22209,331.56862)"><g id="g3966"><g id="g3884" fill="#f80" fill-opacity="1" filter="url(#filter3934)" transform="translate(235.17767,5.2726629)"><path id="path3886" fill="#f80" fill-opacity="1" stroke="none" d="m 295,507.36218 c 0,27.61424 -22.38576,50 -50,50 -27.61424,0 -50,-22.38576 -50,-50 0,-27.61423 22.38576,-50 50,-50 27.61424,0 50,22.38577 50,50 z" opacity=".77"/><path id="path3888" fill="#f80" fill-opacity="1" stroke="none" d="m 270,507.36218 -37.5,21.65064 0,-43.30127 z"/></g><path id="path3880" fill="#2d2d2d" fill-opacity="1" stroke="none" d="m 295,507.36218 c 0,27.61424 -22.38576,50 -50,50 -27.61424,0 -50,-22.38576 -50,-50 0,-27.61423 22.38576,-50 50,-50 27.61424,0 50,22.38577 50,50 z" opacity=".9" transform="translate(235.17767,5.2726629)"/><path id="path3882" fill="#fff" fill-opacity="1" stroke="none" d="m 270,507.36218 -37.5,21.65064 0,-43.30127 z" transform="translate(235.17767,5.2726629)"/></g></g></g></svg>