<svg xmlns="http://www.w3.org/2000/svg" xmlns:svg="http://www.w3.org/2000/svg" id="svg4682" width="130" height="130" version="1.1"><metadata id="metadata4687"/><g id="layer1" transform="translate(0,-922.36218)"><path id="path4825" fill="#f80" fill-opacity="1" fill-rule="nonzero" stroke="none" d="m 41.3836,942.36256 c -1.12545,0 -3.37629,1.12543 -4.50172,2.25086 -1.12543,1.12543 -1.12544,2.25086 -1.12543,3.37629 l 0,50.74977 c -0.55197,-0.062 -1.11662,-0.1058 -1.68814,-0.1058 -7.15831,0 -12.97761,5.01352 -12.97761,11.21922 0,6.2058 5.8193,11.2543 12.97761,11.2543 7.15831,0 12.97761,-5.0485 12.97761,-11.2543 0,-0.1939 -0.024,-0.3711 -0.0351,-0.5627 l 0,-61.30077 c 0,-1.12543 0.0317,-2.28256 1.12543,-3.37629 1.09372,-1.09372 3.37629,-2.25086 4.50172,-2.25086 l -5.62715,0 -5.62715,0 z m 28.13574,5.62715 c -1.12545,0 -3.37629,1.12543 -4.50171,2.25086 -1.12543,1.12543 -1.12545,2.25086 -1.12543,3.37629 l 0,50.74984 c -0.55967,-0.064 -1.10835,-0.1058 -1.68815,-0.1058 -7.16049,0 -12.97761,5.0485 -12.97761,11.2543 0,6.2058 5.81712,11.2192 12.97761,11.2192 7.16049,0 12.94244,-5.0134 12.94244,-11.2192 l 0,-61.89862 c 0,-1.12543 0.0317,-2.28257 1.12543,-3.37629 1.09373,-1.09372 3.37629,-2.25086 4.50172,-2.25086 l -5.62715,0 -5.62715,0 z m 28.13574,5.62715 c -1.12545,0 -3.37628,1.12543 -4.50171,2.25086 -1.12543,1.12543 -1.12544,2.25086 -1.12543,3.37629 l 0,50.71469 c -0.55815,-0.064 -1.10992,-0.07 -1.68815,-0.07 -7.14107,0 -12.94244,5.0134 -12.94244,11.2191 0,6.2058 5.80137,11.2543 12.94244,11.2543 7.1276,0 12.88548,-5.0294 12.90727,-11.2191 l 0.0351,0 0,-61.89863 c 0,-1.12543 0.0317,-2.28256 1.12543,-3.37629 1.09372,-1.09372 3.37629,-2.25086 4.50171,-2.25086 l -5.62714,0 -5.62715,0 z" opacity=".9"/></g></svg>