<svg xmlns="http://www.w3.org/2000/svg" xmlns:svg="http://www.w3.org/2000/svg" id="svg4682" width="300" height="300" version="1.1"><defs id="defs4684"><filter id="filter3934-5-0" width="1.48" height="1.48" x="-.24" y="-.24" color-interpolation-filters="sRGB"><feGaussianBlur id="feGaussianBlur3936-8-3" stdDeviation="10"/></filter><filter id="filter3934-5-0-9" width="1.48" height="1.48" x="-.24" y="-.24" color-interpolation-filters="sRGB"><feGaussianBlur id="feGaussianBlur3936-8-3-7" stdDeviation="10"/></filter></defs><metadata id="metadata4687"/><g id="layer1" transform="translate(0,-752.36218)"><g id="g5852" transform="matrix(2.25,0,0,2.25,1336.2232,1257.5985)"><g id="g5802" fill="#f80" fill-opacity="1" filter="url(#filter3934-5-0-9)" transform="translate(-772.21031,-665.245)"><path id="path5804" fill="#f80" fill-opacity="1" stroke="none" d="m 295,507.36218 c 0,27.61424 -22.38576,50 -50,50 -27.61424,0 -50,-22.38576 -50,-50 0,-27.61423 22.38576,-50 50,-50 27.61424,0 50,22.38577 50,50 z" opacity=".77"/><path id="path5806" fill="#f80" fill-opacity="1" stroke="none" d="m 270,507.36218 -37.5,21.65064 0,-43.30127 z"/></g><g id="g5814"><path id="path5792" fill="#f80" fill-opacity="1" stroke="none" d="m 295,507.36218 c 0,27.61424 -22.38576,50 -50,50 -27.61424,0 -50,-22.38576 -50,-50 0,-27.61423 22.38576,-50 50,-50 27.61424,0 50,22.38577 50,50 z" opacity=".9" transform="translate(-772.21031,-665.245)"/><path id="path5794" fill="#fff" fill-opacity="1" stroke="none" d="m 270,507.36218 -37.5,21.65064 0,-43.30127 z" transform="translate(-772.21031,-665.245)"/></g></g></g></svg>