<svg xmlns="http://www.w3.org/2000/svg" xmlns:svg="http://www.w3.org/2000/svg" id="svg4682" width="160" height="160" version="1.1"><defs id="defs4684"><filter id="filter3934" width="1.48" height="1.48" x="-.24" y="-.24" color-interpolation-filters="sRGB"><feGaussianBlur id="feGaussianBlur3936" stdDeviation="10"/></filter></defs><metadata id="metadata4687"/><g id="layer1" transform="translate(0,-892.36218)"><g id="g4095" transform="matrix(1.25,0,0,1.25,-211.29351,332.46148)"><path id="path4007" fill="#f80" fill-opacity="1" stroke="none" d="m 295,507.36218 c 0,27.61424 -22.38576,50 -50,50 -27.61424,0 -50,-22.38576 -50,-50 0,-27.61423 22.38576,-50 50,-50 27.61424,0 50,22.38577 50,50 z" filter="url(#filter3934)" opacity=".77" transform="translate(-11.96519,4.5583772)"/><path id="path4009" fill="#f80" fill-opacity="1" stroke="none" d="m 270,507.36218 -37.5,21.65064 0,-43.30127 z" filter="url(#filter3934)" transform="translate(-11.96519,4.5583772)"/><path id="path4011" fill="#2d2d2d" fill-opacity="1" stroke="none" d="m 295,507.36218 c 0,27.61424 -22.38576,50 -50,50 -27.61424,0 -50,-22.38576 -50,-50 0,-27.61423 22.38576,-50 50,-50 27.61424,0 50,22.38577 50,50 z" opacity=".9" transform="translate(-11.96519,4.5583772)"/><rect id="rect4042" width="20" height="40" x="210.535" y="491.742" fill="#fff" fill-opacity="1" stroke="none" opacity=".9"/><rect id="rect4042-8" width="20" height="40" x="235.535" y="492.099" fill="#fff" fill-opacity="1" stroke="none" opacity=".9"/></g></g></svg>