<svg xmlns="http://www.w3.org/2000/svg" xmlns:svg="http://www.w3.org/2000/svg" id="svg4682" width="130" height="130" version="1.1"><metadata id="metadata4687"/><g id="layer1" transform="translate(0,-922.36218)"><path id="path5180" fill="#323232" fill-opacity="1" fill-rule="nonzero" stroke="none" d="m 65.125,947.39351 c -4.9116,-0.014 -9.8387,0.99215 -14.4062,3.03125 -0.072,0.0325 -0.1465,0.0611 -0.2188,0.0937 -0.5185,0.23969 -1.0417,0.57293 -1.4687,1 -1.9526,1.9526 -1.9526,5.14114 0,7.09375 0.7392,0.73923 1.671,1.17085 2.625,1.34375 C 38.944,965.20128 30,977.72499 30,992.33096 c 0,19.33004 15.67,35.00004 35,35.00004 19.33,0 35,-15.67 35,-35.00004 0,-14.60597 -8.944,-27.12968 -21.6562,-32.375 0.9592,-0.17835 1.8855,-0.60431 2.625,-1.34375 1.9526,-1.9526 1.9526,-5.14115 0,-7.09375 -0.4327,-0.43271 -0.9433,-0.75991 -1.4688,-1 -4.5566,-2.07172 -9.4634,-3.11103 -14.375,-3.125 z M 65,967.33101 c 13.8073,0 25,11.19288 25,25 0,13.80709 -11.1927,24.99999 -25,24.99999 -13.807,0 -25,-11.1929 -25,-24.99999 0,-13.80712 11.193,-25 25,-25 z m -1.125,3.46875 c -11.3845,0.57708 -20.4062,10.00331 -20.4062,21.53125 0,10.75049 7.8612,19.66019 18.1562,21.28129 l -1.3125,-5.8125 c -6.6407,-2.008 -11.4687,-8.17283 -11.4687,-15.46879 0,-8.92485 7.2314,-16.15625 16.1562,-16.15625 2.3568,0 4.5748,0.5306 6.5938,1.4375 l 3.5625,-4.28125 c -3.024,-1.61748 -6.4872,-2.53125 -10.1563,-2.53125 -0.3719,0 -0.7578,-0.0186 -1.125,0 z m 11.625,6 c -0.4001,0.0223 -0.7559,0.13092 -1,0.375 l -12.0312,12.03125 c -0.9764,0.97629 -0.2577,3.96113 0.7187,4.9375 0.9763,0.9763 3.9612,1.69506 4.9375,0.71875 l 12.0313,-12.03125 c 0.9763,-0.97629 -0.086,-3.61737 -1.0625,-4.59375 -0.7323,-0.73222 -2.3935,-1.50445 -3.5938,-1.4375 z M 65,979.33101 c -7.1819,0 -13,5.81814 -13,13 0,6.38216 4.5924,11.67819 10.6563,12.78129 l -1.4688,-5.0938 c -2.8093,-1.4867 -4.8437,-4.48114 -4.8437,-7.68749 0,-4.53996 4.1162,-8.65625 8.6562,-8.65625 0.2103,0 0.4169,0.014 0.625,0.0312 l 3.625,-3.625 c -1.3335,-0.46168 -2.7594,-0.75 -4.25,-0.75 z"/></g></svg>