<svg xmlns="http://www.w3.org/2000/svg" xmlns:svg="http://www.w3.org/2000/svg" id="svg4682" width="160" height="160" version="1.1"><defs id="defs4684"><filter id="filter3934-5-0" width="1.48" height="1.48" x="-.24" y="-.24" color-interpolation-filters="sRGB"><feGaussianBlur id="feGaussianBlur3936-8-3" stdDeviation="10"/></filter><filter id="filter3934-5-0-7" width="1.48" height="1.48" x="-.24" y="-.24" color-interpolation-filters="sRGB"><feGaussianBlur id="feGaussianBlur3936-8-3-2" stdDeviation="10"/></filter></defs><metadata id="metadata4687"/><g id="layer1" transform="translate(0,-892.36218)"><g id="g3988" transform="matrix(1.25,0,0,1.25,289.03931,739.86053)"><g id="g5075" fill="#f80" fill-opacity="1" filter="url(#filter3934-5-0-7)" transform="translate(-412.23145,-321.36086)"><path id="path5077" fill="#f80" fill-opacity="1" stroke="none" d="m 295,507.36218 c 0,27.61424 -22.38576,50 -50,50 -27.61424,0 -50,-22.38576 -50,-50 0,-27.61423 22.38576,-50 50,-50 27.61424,0 50,22.38577 50,50 z" opacity=".77"/><path id="path5079" fill="#f80" fill-opacity="1" stroke="none" d="m 270,507.36218 -37.5,21.65064 0,-43.30127 z"/></g><g id="g3961" transform="translate(132.78829,223.59871)"><path id="path3963" fill="#2d2d2d" fill-opacity="1" stroke="none" d="m 295,507.36218 c 0,27.61424 -22.38576,50 -50,50 -27.61424,0 -50,-22.38576 -50,-50 0,-27.61423 22.38576,-50 50,-50 27.61424,0 50,22.38577 50,50 z" opacity=".9" transform="translate(-545.01974,-544.95957)"/><path d="m -315.01974,-57.625003 c -5.54,0 -10,4.46 -10,10 l 0,20 c 0,5.54 4.46,10 10,10 l 14.4375,0 -3.5,12.6875 a 1.50015,1.3562116 0 0 0 2.53125,1.3125 l 15.46875,-14 1.0625,0 c 5.54,0 10,-4.46 10,-10 l 0,-20 c 0,-5.54 -4.46,-10 -10,-10 l -30,0 z m -4,7.5 38,0 c 0.554,0 1,0.446 1,1 l 0,3 c 0,0.554 -0.446,1 -1,1 l -38,0 c -0.554,0 -1,-0.446 -1,-1 l 0,-3 c 0,-0.554 0.446,-1 1,-1 z m 0,10 21,0 c 0.554,0 1,0.446 1,1 l 0,3 c 0,0.554 -0.446,1 -1,1 l -21,0 c -0.554,0 -1,-0.446 -1,-1 l 0,-3 c 0,-0.554 0.446,-1 1,-1 z m 28,0 10,0 c 0.554,0 1,0.446 1,1 l 0,3 c 0,0.554 -0.446,1 -1,1 l -10,0 c -0.554,0 -1,-0.446 -1,-1 l 0,-3 c 0,-0.554 0.446,-1 1,-1 z m -28,10 28,0 c 0.554,0 1,0.446 1,1 l 0,3 c 0,0.554 -0.446,1 -1,1 l -28,0 c -0.554,0 -1,-0.446 -1,-1 l 0,-3 c 0,-0.554 0.446,-1 1,-1 z m 35,0 3,0 c 0.554,0 1,0.446 1,1 l 0,3 c 0,0.554 -0.446,1 -1,1 l -3,0 c -0.554,0 -1,-0.446 -1,-1 l 0,-3 c 0,-0.554 0.446,-1 1,-1 z" style="marker:none" id="path3966" fill="#fafafa" fill-opacity="1" fill-rule="nonzero" stroke="none" stroke-width=".2" color="#000" display="inline" enable-background="accumulate" overflow="visible" visibility="visible"/></g></g></g></svg>