<svg xmlns="http://www.w3.org/2000/svg" xmlns:svg="http://www.w3.org/2000/svg" id="svg4682" width="130" height="130" version="1.1"><metadata id="metadata4687"/><g id="layer1" transform="translate(0,-922.36218)"><g id="g3028" transform="translate(230.41248,1.9226092)"><path id="path6101" fill="#4b4b4b" fill-opacity="1" stroke="none" d="m -213.91248,1022.9396 c -1,0 -2,-1 -2,-2 l 0,-16 c 0,-1 1,-2 2,-2 3,0.013 9,-0.9871 11,-2.98706 14.78929,-14.79121 28.66311,-33.66311 44,-49 2,-2 4,-3 8,-3 5.99999,-0.0154 9,-0.0128 15,-0.0128 l 0,19.99983 -7,0.0128 c -3,0 -3.91189,0.90298 -6,3 -16,16.01279 -29,34.01303 -44,49.00013 -2,2 -4,3 -8,3 z"/><path id="path6103" fill="#4b4b4b" fill-opacity="1" fill-rule="nonzero" stroke="none" d="m 519.8125,550.6875 a 0.70275342,0.70275342 0 0 0 -0.5,0.6875 l 0,51.96875 a 0.70275342,0.70275342 0 0 0 1.03125,0.59375 l 45,-25.96875 a 0.70275342,0.70275342 0 0 0 0,-1.1875 l -45,-26 a 0.70275342,0.70275342 0 0 0 -0.53125,-0.0937 z" transform="matrix(0.56084977,0,0,0.56233897,-432.16869,633.27599)"/><path id="path6105" fill="#4b4b4b" fill-opacity="1" stroke="none" d="m -213.91248,947.95239 c -1,9.9e-4 -2,1 -2,2 l 0,16 c 0,1 1,2 2,2 3,-0.0128 9,1 11,3 3.82659,3.82709 7.59853,7.9147 11.34375,12.15625 4.49955,-5.17252 9.00794,-10.52433 13.59375,-15.84375 -4.88558,-5.65942 -9.78243,-11.16184 -14.9375,-16.3125 -2,-2 -4,-3 -8,-3 l -13,0 z m 53.625,39.8125 c -4.60782,5.27337 -9.11375,10.58456 -13.625,15.84371 4.90189,5.6487 9.8589,11.2027 15,16.3438 2,2 4,3 8,3 5.99999,0.015 9,0 15,0 l 0,-20 -7,0 c -3,0 -3.91189,-0.903 -6,-3.00001 -3.95781,-3.96098 -7.70864,-8.05899 -11.375,-12.1875 z"/><path id="path6107" fill="#4b4b4b" fill-opacity="1" fill-rule="nonzero" stroke="none" d="m 519.8125,550.6875 a 0.70275342,0.70275342 0 0 0 -0.5,0.6875 l 0,51.96875 a 0.70275342,0.70275342 0 0 0 1.03125,0.59375 l 45,-25.96875 a 0.70275342,0.70275342 0 0 0 0,-1.1875 l -45,-26 a 0.70275342,0.70275342 0 0 0 -0.53125,-0.0937 z" transform="matrix(0.56084977,0,0,0.56233897,-432.16869,688.27599)"/></g></g></svg>