<svg xmlns="http://www.w3.org/2000/svg" xmlns:svg="http://www.w3.org/2000/svg" id="svg4682" width="130" height="130" version="1.1"><metadata id="metadata4687"/><g id="layer1" transform="translate(0,-922.36218)"><g id="g3007" transform="translate(137.14286,1.0714292)"><path id="path5803-6" fill="#fafafa" fill-opacity="1" stroke="none" d="m -120.64286,1023.7908 c -1,-10e-4 -2,-1 -2,-2 l 0,-16 c 0,-1 1,-2 2,-2 3,0.013 9,-0.9871 11,-2.9871 14.789292,-14.79119 28.663112,-33.66309 44.000002,-48.99998 2,-2 4,-3 8,-3 5.99999,-0.0154 9,-0.0128 15,-0.0128 l 0,19.99983 -7,0.0128 c -3,0 -3.91189,0.90298 -6,3 -16,16.01279 -29,34.01295 -44,49.00015 -2.000002,2 -4.000002,3 -8.000002,3 z"/><path id="path5805-8" fill="#fafafa" fill-opacity="1" fill-rule="nonzero" stroke="none" d="m 519.8125,550.6875 a 0.70275342,0.70275342 0 0 0 -0.5,0.6875 l 0,51.96875 a 0.70275342,0.70275342 0 0 0 1.03125,0.59375 l 45,-25.96875 a 0.70275342,0.70275342 0 0 0 0,-1.1875 l -45,-26 a 0.70275342,0.70275342 0 0 0 -0.53125,-0.0937 z" transform="matrix(0.56084977,0,0,0.56233897,-338.89907,634.12717)"/><path id="path6019" fill="#fafafa" fill-opacity="1" stroke="none" d="m -120.64286,948.80357 c -1,9.9e-4 -2,1 -2,2 l 0,16 c 0,1 1,2 2,2 3,-0.0128 9,1 11,3 3.82659,3.82709 7.59853,7.9147 11.343752,12.15625 4.49955,-5.17252 9.00794,-10.52433 13.59375,-15.84375 -4.88558,-5.65942 -9.78243,-11.16184 -14.9375,-16.3125 -2.000002,-2 -4.000002,-3 -8.000002,-3 l -13,0 z m 53.625002,39.8125 c -4.60782,5.27337 -9.11375,10.58456 -13.625,15.84373 4.90189,5.6487 9.8589,11.2027 15,16.3438 2,2 4,3 8,3 5.99999,0.015 9,0 15,0 l 0,-20 -7,0 c -3,0 -3.91189,-0.903 -6,-3 -3.95781,-3.96101 -7.70864,-8.05902 -11.375,-12.18753 z"/><path id="path6021" fill="#fafafa" fill-opacity="1" fill-rule="nonzero" stroke="none" d="m 519.8125,550.6875 a 0.70275342,0.70275342 0 0 0 -0.5,0.6875 l 0,51.96875 a 0.70275342,0.70275342 0 0 0 1.03125,0.59375 l 45,-25.96875 a 0.70275342,0.70275342 0 0 0 0,-1.1875 l -45,-26 a 0.70275342,0.70275342 0 0 0 -0.53125,-0.0937 z" transform="matrix(0.56084977,0,0,0.56233897,-338.89907,689.12717)"/></g></g></svg>