<svg xmlns="http://www.w3.org/2000/svg" xmlns:svg="http://www.w3.org/2000/svg" id="svg4682" width="130" height="130" version="1.1"><metadata id="metadata4687"/><g id="layer1" transform="translate(0,-922.36218)"><path id="path11055" fill="#323232" fill-opacity="1" stroke="none" d="m 104.77208,1013.927 c 2.74908,-0.036 5.22528,-2.4404 5.22792,-5.0769 l 0,-7.4378 c 0,-1.3282 -0.57504,-2.64707 -1.5552,-3.58552 L 71.38604,962.28849 c -0.9786,-0.9399 -2.35392,-1.4885 -3.73896,-1.4914 l -5.29404,0 c -1.38504,0 -2.76036,0.5515 -3.73896,1.4914 L 21.5552,997.82678 c -0.98004,0.93845 -1.5522,2.25732 -1.5552,3.58552 l 0,7.4378 c 0.012,1.989 1.3566,3.9133 3.273,4.674 1.9164,0.7607 4.28796,0.3126 5.76012,-1.0884 l 35.50368,-34.04696 0.92652,0 35.50368,34.04696 c 0.9942,0.9549 2.39808,1.5052 3.80508,1.4913 z" opacity=".9"/></g></svg>