<svg xmlns="http://www.w3.org/2000/svg" xmlns:svg="http://www.w3.org/2000/svg" xmlns:xlink="http://www.w3.org/1999/xlink" id="svg3075" width="300" height="300" version="1.1"><defs id="defs3077"><linearGradient id="linearGradient3906"><stop id="stop3908" offset="0" stop-color="#fff" stop-opacity="1"/><stop id="stop3910" offset="1" stop-color="#fff" stop-opacity="0"/></linearGradient><linearGradient id="linearGradient5801"><stop id="stop5807" offset="0" stop-color="#3f3f3f" stop-opacity=".498"/><stop id="stop5805" offset="1" stop-color="#000" stop-opacity="0"/></linearGradient><linearGradient id="linearGradient4755"><stop id="stop4757" offset="0" stop-color="#000" stop-opacity="1"/><stop id="stop4759" offset="1" stop-color="#000" stop-opacity="0"/></linearGradient><linearGradient id="linearGradient3168" x1="130" x2="350" y1="972.362" y2="1202.362" gradientTransform="matrix(0.70645135,0,0,0.70645135,-127.87625,199.80852)" gradientUnits="userSpaceOnUse" xlink:href="#linearGradient4755"/><linearGradient id="linearGradient3170" x1="288" x2="248" y1="905.837" y2="865.837" gradientTransform="matrix(0.70645135,0,0,0.70645135,-127.87625,405.05058)" gradientUnits="userSpaceOnUse" xlink:href="#linearGradient5801"/><linearGradient id="linearGradient3172" x1="548" x2="520" y1="840.362" y2="868.362" gradientTransform="matrix(0.70645135,0,0,0.70645135,-339.81165,411.74394)" gradientUnits="userSpaceOnUse" xlink:href="#linearGradient3906"/><linearGradient id="linearGradient3243" x1="288" x2="248" y1="905.837" y2="865.837" gradientTransform="matrix(0.73291793,0,0,0.73291793,-68.425047,408.9889)" gradientUnits="userSpaceOnUse" xlink:href="#linearGradient4755-4"/><linearGradient id="linearGradient4755-4"><stop id="stop4757-9" offset="0" stop-color="#7f7f7f" stop-opacity="1"/><stop id="stop4759-3" offset="1" stop-color="#000" stop-opacity="0"/></linearGradient><linearGradient id="linearGradient3902" x1="220" x2="324" y1="1064.362" y2="1200.362" gradientTransform="matrix(0.73291793,0,0,0.73291793,-68.425047,196.05764)" gradientUnits="userSpaceOnUse" xlink:href="#linearGradient4755-4"/><linearGradient id="linearGradient4041"><stop id="stop4043" offset="0" stop-color="#7f7f7f" stop-opacity="1"/><stop id="stop4045" offset="1" stop-color="#000" stop-opacity="0"/></linearGradient><linearGradient id="linearGradient4102" x1="220" x2="324" y1="1064.362" y2="1200.362" gradientTransform="matrix(0.73291793,0,0,0.73291793,-68.425047,196.05764)" gradientUnits="userSpaceOnUse" xlink:href="#linearGradient4755-4"/><linearGradient id="linearGradient4104" x1="288" x2="248" y1="905.837" y2="865.837" gradientTransform="matrix(0.73291793,0,0,0.73291793,-68.425047,408.9889)" gradientUnits="userSpaceOnUse" xlink:href="#linearGradient4755-4"/><linearGradient id="linearGradient4109" x1="288" x2="248" y1="905.837" y2="865.837" gradientTransform="matrix(0.6925994,0,0,0.6925994,-124.58052,417.00327)" gradientUnits="userSpaceOnUse" xlink:href="#linearGradient4755-4"/><linearGradient id="linearGradient4112" x1="220" x2="324" y1="1064.362" y2="1200.362" gradientTransform="matrix(0.6925994,0,0,0.6925994,-124.58052,215.78557)" gradientUnits="userSpaceOnUse" xlink:href="#linearGradient4755-4"/><linearGradient id="linearGradient4112-559" x1="220" x2="324" y1="1064.362" y2="1200.362" gradientTransform="matrix(0.6925994,0,0,0.6925994,-124.58052,215.78557)" gradientUnits="userSpaceOnUse" xlink:href="#linearGradient4755-4-50"/><linearGradient id="linearGradient4755-4-50"><stop id="stop3062" offset="0" stop-color="#7f7f7f" stop-opacity="1"/><stop id="stop3064" offset="1" stop-color="#000" stop-opacity="0"/></linearGradient><linearGradient id="linearGradient4109-197" x1="288" x2="248" y1="905.837" y2="865.837" gradientTransform="matrix(0.6925994,0,0,0.6925994,-124.58052,417.00327)" gradientUnits="userSpaceOnUse" xlink:href="#linearGradient4755-4-190"/><linearGradient id="linearGradient4755-4-190"><stop id="stop3068" offset="0" stop-color="#7f7f7f" stop-opacity="1"/><stop id="stop3070" offset="1" stop-color="#000" stop-opacity="0"/></linearGradient><linearGradient id="linearGradient4748" x1="288" x2="248" y1="905.837" y2="865.837" gradientTransform="matrix(0.30474373,0,0,0.30474373,-127.78588,751.65807)" gradientUnits="userSpaceOnUse" xlink:href="#linearGradient5801-4"/><linearGradient id="linearGradient5801-4"><stop id="stop5807-0" offset="0" stop-color="#7f4400" stop-opacity=".498"/><stop id="stop5805-1" offset="1" stop-color="#000" stop-opacity="0"/></linearGradient><linearGradient id="linearGradient4746" x1="235" x2="350" y1="1087.362" y2="1202.362" gradientTransform="matrix(0.30474373,0,0,0.30474373,-127.78588,663.29035)" gradientUnits="userSpaceOnUse" xlink:href="#linearGradient4755-2"/><linearGradient id="linearGradient4755-2"><stop id="stop4757-3" offset="0" stop-color="#f80" stop-opacity="1"/><stop id="stop4759-8" offset="1" stop-color="#000" stop-opacity="0"/></linearGradient><linearGradient id="linearGradient3070" x1="235" x2="350" y1="1087.362" y2="1202.362" gradientTransform="matrix(0.30474373,0,0,0.30474373,-127.78588,663.29035)" gradientUnits="userSpaceOnUse" xlink:href="#linearGradient4755-2"/><linearGradient id="linearGradient3072" x1="288" x2="248" y1="905.837" y2="865.837" gradientTransform="matrix(0.30474373,0,0,0.30474373,-127.78588,751.65807)" gradientUnits="userSpaceOnUse" xlink:href="#linearGradient5801-4"/><linearGradient id="linearGradient3222" x1="220" x2="324" y1="1064.362" y2="1200.362" gradientTransform="matrix(0.6925994,0,0,0.6925994,-124.58052,215.78557)" gradientUnits="userSpaceOnUse" xlink:href="#linearGradient4755-4-50"/><linearGradient id="linearGradient3224" x1="288" x2="248" y1="905.837" y2="865.837" gradientTransform="matrix(0.6925994,0,0,0.6925994,-124.58052,417.00327)" gradientUnits="userSpaceOnUse" xlink:href="#linearGradient4755-4-190"/><linearGradient id="linearGradient3226" x1="235" x2="350" y1="1087.362" y2="1202.362" gradientTransform="matrix(0.30474373,0,0,0.30474373,-127.78588,663.29035)" gradientUnits="userSpaceOnUse" xlink:href="#linearGradient4755-2"/><linearGradient id="linearGradient3228" x1="288" x2="248" y1="905.837" y2="865.837" gradientTransform="matrix(0.30474373,0,0,0.30474373,-127.78588,751.65807)" gradientUnits="userSpaceOnUse" xlink:href="#linearGradient5801-4"/><linearGradient id="linearGradient3242" x1="288" x2="248" y1="905.837" y2="865.837" gradientTransform="matrix(2.2727273,0,0,2.2727273,-406.8182,-1041.5838)" gradientUnits="userSpaceOnUse" xlink:href="#linearGradient4755-4-190"/><linearGradient id="linearGradient3245" x1="220" x2="324" y1="1064.362" y2="1200.362" gradientTransform="matrix(2.2727273,0,0,2.2727273,-406.8182,-1701.8688)" gradientUnits="userSpaceOnUse" xlink:href="#linearGradient4755-4-50"/><linearGradient id="linearGradient3226-37" x1="235" x2="350" y1="1087.362" y2="1202.362" gradientTransform="matrix(0.30474373,0,0,0.30474373,-127.78588,663.29035)" gradientUnits="userSpaceOnUse" xlink:href="#linearGradient4755-2-409"/><linearGradient id="linearGradient4755-2-409"><stop id="stop3796" offset="0" stop-color="#9c9c9c" stop-opacity="1"/><stop id="stop3798" offset="1" stop-color="#000" stop-opacity="0"/></linearGradient><linearGradient id="linearGradient3228-762" x1="288" x2="248" y1="905.837" y2="865.837" gradientTransform="matrix(0.30474373,0,0,0.30474373,-127.78588,751.65807)" gradientUnits="userSpaceOnUse" xlink:href="#linearGradient5801-4-423"/><linearGradient id="linearGradient5801-4-423"><stop id="stop3802" offset="0" stop-color="#4e4e4e" stop-opacity=".498"/><stop id="stop3804" offset="1" stop-color="#000" stop-opacity="0"/></linearGradient><linearGradient id="linearGradient3226-910" x1="235" x2="350" y1="1087.362" y2="1202.362" gradientTransform="matrix(0.30474373,0,0,0.30474373,-127.78588,663.29035)" gradientUnits="userSpaceOnUse" xlink:href="#linearGradient4755-2-564"/><linearGradient id="linearGradient4755-2-564"><stop id="stop4172" offset="0" stop-color="#7f7f7f" stop-opacity="1"/><stop id="stop4174" offset="1" stop-color="#000" stop-opacity="0"/></linearGradient><linearGradient id="linearGradient3228-631" x1="288" x2="248" y1="905.837" y2="865.837" gradientTransform="matrix(0.30474373,0,0,0.30474373,-127.78588,751.65807)" gradientUnits="userSpaceOnUse" xlink:href="#linearGradient5801-4-482"/><linearGradient id="linearGradient5801-4-482"><stop id="stop4178" offset="0" stop-color="#3f3f3f" stop-opacity=".498"/><stop id="stop4180" offset="1" stop-color="#000" stop-opacity="0"/></linearGradient><linearGradient id="linearGradient4303" x1="235" x2="350" y1="1087.362" y2="1202.362" gradientTransform="matrix(0.30474373,0,0,0.30474373,-127.78588,663.29035)" gradientUnits="userSpaceOnUse" xlink:href="#linearGradient4755-2-409"/><linearGradient id="linearGradient4305" x1="288" x2="248" y1="905.837" y2="865.837" gradientTransform="matrix(0.30474373,0,0,0.30474373,-127.78588,751.65807)" gradientUnits="userSpaceOnUse" xlink:href="#linearGradient5801-4-423"/></defs><metadata id="metadata3080"/><g id="layer1" transform="translate(0,-752.36218)"><g id="g3725" transform="matrix(7.616815,0,0,7.616815,554.38844,-6809.5463)"><path id="path3727" fill="#898989" fill-opacity="1" stroke="none" d="m -69.108953,1029.7027 c 0.406598,0.4181 1.022116,0.6095 1.32373,0.6095 l 29.512526,0 c 0.236277,0 0.810002,-0.1897 1.199928,-0.6095 l -32.036184,0 z"/><path id="path3729" fill="#9c9c9c" fill-opacity="1" stroke="none" d="m -64.861587,1017.2082 c -0.408119,0 -1.499571,0.6082 -1.7618,1.4856 -9.14e-4,0 9.14e-4,0.01 0,0.01 -1.000794,3.4194 -1.935236,6.6129 -2.809356,9.5994 -0.179403,0.613 0.0076,1.0748 0.32379,1.4 l 32.036184,0 c 0.314456,-0.3386 0.509184,-0.8292 0.314267,-1.4952 -0.466163,-1.5927 -0.926488,-3.1671 -1.390393,-4.7521 l -1.418963,-4.8283 c -0.236762,-0.8078 -1.327235,-1.4189 -1.799893,-1.4189 l -2.571275,0 0.609487,1.8284 c 0,0 0.609488,1.219 0,1.8285 -2.142729,2.1427 -5.562112,3.2849 -9.056602,3.4188 -3.960422,0.1518 -8.018569,-0.9904 -10.446996,-3.4188 -0.609487,-0.6095 0,-1.8285 0,-1.8285 l 0.609487,-1.8284 -2.637937,0 z"/><path id="path3731" fill="#fafafa" fill-opacity="1" stroke="none" d="m -56.433519,999.83781 -2.133206,6.39959 c 3.656925,2.7427 7.273541,2.7607 10.970774,0 l -2.133206,-6.39959 c -2.43795,1.21899 -4.266412,1.21899 -6.704362,0 z m -4.571156,13.71349 -1.218975,3.6569 -0.609487,1.8285 c 0,0 -0.609487,1.2189 0,1.8284 2.428427,2.4284 6.486574,3.5706 10.446996,3.4188 3.49449,-0.1339 6.913873,-1.2761 9.056602,-3.4188 0.609488,-0.6095 0,-1.8284 0,-1.8284 l -0.609487,-1.8285 -1.218975,-3.6569 c -4.571156,3.9616 -11.275518,3.9616 -15.846674,0 z"/><path id="path3733" fill="#9c9c9c" fill-opacity="1" stroke="none" d="m -53.081338,994.65716 c -0.469083,0 -0.847684,0.0744 -1.218975,0.30475 -0.609487,0.30474 -1.523719,3.04743 -1.523719,3.04743 l -0.609487,1.82847 c 2.43795,1.21899 4.266412,1.21899 6.704362,0 l -0.609487,-1.82847 c 0,0 -0.914232,-2.74269 -1.523719,-3.04743 -0.371288,-0.23039 -0.749938,-0.30475 -1.218975,-0.30475 z m -5.485387,11.58024 -2.43795,7.3139 c 4.571156,3.9616 11.275518,3.9616 15.846674,0 l -2.43795,-7.3139 c -3.697233,2.7607 -7.313849,2.7427 -10.970774,0 z"/><path id="path3735" fill="#fff" fill-opacity="1" stroke="none" d="m -55.405009,1000.2949 -0.428546,1.2666 -1.752276,5.2568 -0.01905,0.067 c 1.018448,0.6322 2.030992,1.0604 3.047438,1.2666 l 0.152371,-0.7714 1.047557,-5.4377 0.228558,-1.1904 c -0.739345,-0.01 -1.483788,-0.158 -2.276055,-0.4572 z m -4.666388,13.9801 -0.514255,1.5523 -0.504732,1.4952 c 0,0 -0.500282,1.0043 0,1.5046 0.138464,0.3245 0.77607,1.8651 3.847389,0.7333 0.68127,-0.1909 0.73329,-1.3047 0.73329,-1.3047 l 0.304744,-1.5523 0.104755,-0.5713 c -1.398785,-0.3628 -2.741986,-0.9817 -3.971191,-1.8571 z"/><path id="path3737" fill="#b6b6b6" fill-opacity="1" stroke="none" d="m -53.081338,995.87614 c -0.173509,-0.009 -0.380902,0.10135 -0.695197,0.34283 -0.502873,0.38633 -1.552288,3.84743 -1.552288,3.84743 l -0.07619,0.2285 c 0.792267,0.2991 1.53671,0.4509 2.276055,0.4571 l 0.06666,-0.3619 c 0,0 0.751547,-3.66982 0.43807,-4.13303 -0.09023,-0.14588 -0.08329,-0.16965 -0.161896,-0.2381 -0.09722,-0.0847 -0.191113,-0.13765 -0.29522,-0.14283 z m -4.52354,11.00886 -1.980834,5.933 -0.485685,1.457 c 1.229205,0.8754 2.572406,1.4943 3.971191,1.8571 l 0.495209,-2.5427 1.047557,-5.4378 c -1.016446,-0.2062 -2.02899,-0.6345 -3.047438,-1.2666 z m -3.552168,10.5994 c -0.05863,0.1529 -0.137714,0.3977 -0.152372,0.6475 0.01466,-0.2491 0.09374,-0.4951 0.152372,-0.6475 z m -0.142849,0.8951 c 0.01173,0.082 0.03246,0.1628 0.06666,0.2381 -0.0342,-0.075 -0.05494,-0.156 -0.06666,-0.2381 z m 0.06666,0.2381 c 0.0342,0.075 0.08031,0.147 0.142848,0.2095 -0.06254,-0.062 -0.10865,-0.1342 -0.142848,-0.2095 z m 0.142848,0.2095 c 0.03462,0.081 0.101322,0.2372 0.228558,0.4095 -0.126919,-0.1728 -0.193942,-0.3283 -0.228558,-0.4095 z m 0.228558,0.4095 c 0.03295,0.045 0.07257,0.088 0.114279,0.1334 -0.03987,-0.044 -0.08255,-0.09 -0.114279,-0.1334 z m 4.323552,-0.7809 c -0.02444,0.1611 -0.06653,0.3941 -0.171418,0.6095 0.103729,-0.2128 0.146246,-0.4481 0.171418,-0.6095 z m -0.380929,0.9143 c -0.0582,0.058 -0.124378,0.1055 -0.199988,0.1428 0.07564,-0.037 0.141702,-0.084 0.199988,-0.1428 z"/><path id="path3739" fill="url(#linearGradient4303)" fill-opacity="1" stroke="none" d="m -62.261743,1017.2082 c -0.279361,0.8381 -0.558701,1.676 -0.838045,2.5141 0.007,0.036 0.02054,0.069 0.02855,0.1048 0.06633,-0.4273 0.238081,-0.7904 0.238081,-0.7904 l 0.609488,-1.8285 -0.03809,0 z m 18.322717,0 0.609487,1.8285 c 0,0 0.609488,1.2189 0,1.8284 -2.142729,2.1427 -5.562112,3.2849 -9.056602,3.4188 -3.772204,0.1446 -7.628269,-0.8889 -10.085113,-3.0855 1.024454,1.5365 2.930587,2.6316 4.047377,4.1141 1.67265,1.656 3.34005,3.3291 4.999702,4.9997 l 15.151478,0 c 0.236277,0 0.810002,-0.1897 1.199928,-0.6095 0.314456,-0.3386 0.509184,-0.8292 0.314267,-1.4952 -0.466163,-1.5927 -0.926488,-3.1671 -1.390393,-4.7521 l -1.418963,-4.8283 c -0.236762,-0.8078 -1.327235,-1.4189 -1.799893,-1.4189 l -2.571275,0 z"/><path id="path3741" fill="url(#linearGradient4305)" fill-opacity="1" stroke="none" d="m -53.081338,994.65716 c -0.469083,0 -0.847684,0.0744 -1.218975,0.30475 -0.134307,0.0671 -0.287209,0.25622 -0.438069,0.50471 -0.287773,0.57368 -0.545845,1.15166 -0.790429,1.74277 -0.04993,0.13067 -0.104198,0.25559 -0.142849,0.36188 -0.09523,0.2619 -0.152372,0.43807 -0.152372,0.43807 l -0.609487,1.82847 -2.133206,6.39959 -2.43795,7.3139 -1.218975,3.6569 -0.03809,0 c -0.278423,0.8353 -0.559671,1.6693 -0.838045,2.5046 0.332555,2.5738 3.500406,3.2087 5.533003,3.9902 5.27626,1.4106 11.579098,0.3909 15.256233,-3.9235 0.687246,-0.6835 1.37064,-1.3727 2.05702,-2.0571 -0.39428,-0.3116 -0.849007,-0.5142 -1.114219,-0.5142 l -2.571275,0 -1.218975,-3.6569 -2.43795,-7.3139 -2.133206,-6.39959 -0.609487,-1.82847 c 0,0 -0.914232,-2.74269 -1.523719,-3.04743 -0.371288,-0.23039 -0.749938,-0.30475 -1.218975,-0.30475 z" opacity=".593"/></g></g></svg>