<svg xmlns="http://www.w3.org/2000/svg" xmlns:svg="http://www.w3.org/2000/svg" id="svg4823" width="700" height="134" version="1.1"><metadata id="metadata4828"/><g id="layer1" transform="translate(0,-918.36218)"><path d="m 9.3468,928.58668 681.3064,0 0,113.55102 -681.3064,0 z" style="marker:none" id="path6280" fill="#fafafa" fill-opacity="1" fill-rule="nonzero" stroke="none" stroke-width="2" color="#000" display="inline" enable-background="accumulate" overflow="visible" visibility="visible"/><g id="g5047"><path id="path6282" fill="#323232" fill-opacity="1" stroke="none" d="m 596.7962,949.88338 c -0.4329,0.085 -0.7746,0.5051 -0.7688,0.9462 l 0,69.07292 c 0,0.4946 0.4515,0.9434 0.9462,0.9461 l 26.4953,0 c 0.4947,0 0.9435,-0.4515 0.9463,-0.9461 l 0,-69.07292 c 0,-0.4946 -0.4516,-0.9435 -0.9463,-0.9462 l -26.4953,0 c -0.059,-0.01 -0.1184,-0.01 -0.1774,0 z m 42.5817,0 c -0.4329,0.085 -0.7746,0.5051 -0.7689,0.9462 l 0,69.07292 c 0,0.4946 0.4516,0.9434 0.9463,0.9461 l 26.4952,0 c 0.4947,0 0.9436,-0.4515 0.9463,-0.9461 l 0,-69.07292 c 0,-0.4946 -0.4516,-0.9435 -0.9463,-0.9462 l -26.4952,0 c -0.059,-0.01 -0.1185,-0.01 -0.1774,0 z"/><text id="text6284" x="489.123" y="998.817" fill="#f80" fill-opacity="1" stroke="none" font-family="Sans" font-size="37.85" font-style="normal" font-weight="normal" letter-spacing="0" word-spacing="0" xml:space="preserve" style="line-height:125%"><tspan style="-inkscape-font-specification:Roboto" id="tspan6286" x="489.123" y="998.817" fill="#f80" fill-opacity="1" font-family="Roboto">0:21</tspan></text><text id="text6288" x="127.629" y="975.9" fill="#222" fill-opacity="1" stroke="none" font-family="Roboto" font-size="37.85" font-stretch="normal" font-style="normal" font-variant="normal" font-weight="normal" letter-spacing="0" word-spacing="0" xml:space="preserve" style="line-height:125%;-inkscape-font-specification:Roboto"><tspan style="-inkscape-font-specification:Roboto" id="tspan6290" x="127.629" y="975.9" fill="#222" fill-opacity="1" font-size="33.119" font-style="normal" font-weight="normal">A Wonderful Song</tspan></text><text id="text6292" x="128.877" y="1023.213" fill="#777" fill-opacity="1" stroke="none" font-family="Roboto" font-size="37.85" font-stretch="normal" font-style="normal" font-variant="normal" font-weight="normal" letter-spacing="0" word-spacing="0" xml:space="preserve" style="line-height:125%;-inkscape-font-specification:Roboto"><tspan id="tspan6294" x="128.877" y="1023.213" fill="#777" fill-opacity="1" font-size="28.388">Great Artist</tspan></text><path id="path6296" fill="#004eff" fill-opacity="1" fill-rule="nonzero" stroke="none" stroke-width="2" d="m 23.5407,940.41508 0,89.89462 89.8946,0 0,-89.89462 -89.8946,0 z m 68.6038,9.4626 c 3.9195,0 7.0969,3.1775 7.0969,7.097 0,3.9195 -3.1774,7.0969 -7.0969,7.0969 -3.9196,0 -7.097,-3.1774 -7.097,-7.0969 0,-3.9195 3.1774,-7.097 7.097,-7.097 z m -50.0039,9.1669 c 0.1566,-0.012 0.315,0 0.4731,0 1.682,0.049 3.31,1.0079 4.1695,2.4543 l 9.8766,30.9605 9.4626,14.19382 15.9089,-27.67802 c 1.9151,-1.4339 4.875,-1.2206 6.5647,0.4731 l 5.9141,13.0111 c 0.9319,0.9278 4.7285,8.14762 4.7313,9.46252 l 5.027,14.1939 c 0,2.6329 -2.3941,5.027 -5.027,5.027 l -61.5068,0 c -2.7778,0 -5.2458,-2.7036 -4.9974,-5.4706 l 4.7313,-52.04422 c 0.2061,-2.364 2.3233,-4.399 4.6721,-4.5834 z" color="#000" display="inline" enable-background="accumulate" overflow="visible" visibility="visible" style="marker:none"/></g><g id="g5080" transform="translate(-6070.9331,3955.6997)"><g id="g5040" transform="matrix(0.527776,0,0,0.527776,7189.4419,-2344.2972)"><path id="path5042" fill="#f80" fill-opacity="1" fill-rule="nonzero" stroke="none" stroke-width="2" d="m -1420,-1207.625 c -14.24,0 -30,5 -40,15 -17.605,17.6049 -19.9443,73.0896 -20.0937,97.8125 14.2293,16.1813 34.8901,26.5717 58.0312,27.1563 0.687,0.017 1.3712,0.031 2.0625,0.031 0.6913,0 1.3755,-0.014 2.0625,-0.031 23.1411,-0.5846 43.8019,-10.975 58.0313,-27.1563 -0.1495,-24.7229 -2.4888,-80.2076 -20.0938,-97.8125 -10,-10 -25.76,-15 -40,-15 z" color="#000" display="inline" enable-background="accumulate" overflow="visible" visibility="visible" style="marker:none"/><path id="path5044" fill="#fafafa" fill-opacity="1" fill-rule="nonzero" stroke="none" stroke-width="2" d="m -1452,-1183.6378 c 8.6367,-7.308 20.608,-12 32,-12 11.392,0 23.3633,4.692 32,12 13,11 8,31 8,31 0,0 -4,15 -40,15 -36,0 -40,-15 -40,-15 0,0 -5,-20 8,-31 z" color="#000" display="inline" enable-background="accumulate" overflow="visible" visibility="visible" style="marker:none"/><path id="path5046" fill="#f80" fill-opacity="1" stroke="none" stroke-width="10" d="m -1420,-1237.625 c -49.6464,0 -90,40.3536 -90,90 0,5.4402 0.5057,10.7605 1.4375,15.9375 l 9.8125,-1.75 c -0.8177,-4.6025 -1.25,-9.3418 -1.25,-14.1875 0,-44.242 35.758,-80 80,-80 44.242,0 80,35.758 80,80 0,4.7801 -0.4224,9.4562 -1.2188,14 l 5.2188,0 0,1.3438 4.5938,0.5624 c 0.9275,-5.1657 1.4062,-10.4786 1.4062,-15.9062 0,-49.6464 -40.3536,-90 -90,-90 z" baseline-shift="baseline" color="#000" direction="ltr" display="inline" enable-background="accumulate" font-family="Sans" font-size="medium" font-stretch="normal" font-style="normal" font-variant="normal" font-weight="normal" letter-spacing="normal" overflow="visible" text-anchor="start" text-decoration="none" visibility="visible" word-spacing="normal" writing-mode="lr-tb" style="text-indent:0;text-align:start;line-height:normal;text-transform:none;block-progression:tb;marker:none;-inkscape-font-specification:Sans"/><path id="path5048" fill="#f80" fill-opacity="1" stroke="none" stroke-width="5" d="m -1331.4127,-1131.7565 c -0.4867,2.7182 -3.0861,4.5272 -5.8029,4.0393 -2.7181,-0.4867 -4.5272,-3.0848 -4.0393,-5.8029 0.4867,-2.7182 3.0848,-4.5273 5.8029,-4.0392 2.7182,0.4866 4.5273,3.0861 4.0393,5.8028 z" color="#000" display="inline" enable-background="accumulate" overflow="visible" visibility="visible" style="marker:none"/><path id="path5050" fill="#f80" fill-opacity="1" stroke="none" stroke-width="5" d="m -1508.5874,-1131.7625 c -0.4865,-2.7165 1.3211,-5.3165 4.0385,-5.8016 2.7186,-0.4864 5.316,1.3202 5.8016,4.0385 0.4862,2.7186 -1.3201,5.3162 -4.0386,5.8016 -2.7164,0.4863 -5.317,-1.3212 -5.8015,-4.0385 z" color="#000" display="inline" enable-background="accumulate" overflow="visible" visibility="visible" style="marker:none"/></g><text id="text5052" x="6428.633" y="-2911.545" fill="#fafafa" fill-opacity="1" stroke="none" font-family="Roboto" font-size="40" font-stretch="normal" font-style="normal" font-variant="normal" font-weight="normal" letter-spacing="0" word-spacing="0" xml:space="preserve" style="line-height:125%;-inkscape-font-specification:Roboto"><tspan style="-inkscape-font-specification:Roboto Bold" id="tspan5054" x="6428.633" y="-2911.545" fill="#fafafa" fill-opacity="1" font-weight="bold">2</tspan></text></g><g id="g5020" transform="translate(2,-4)"><g id="g6298" transform="matrix(0.52941239,0,0,0.52941239,752.90905,1903.0322)"><path d="m -1220,-1747.625 c -14.24,0 -30,5 -40,15 -17.605,17.6049 -19.9443,73.0896 -20.0937,97.8125 14.2293,16.1813 34.8901,26.5717 58.0312,27.1563 0.687,0.017 1.3712,0.031 2.0625,0.031 0.6913,0 1.3755,-0.014 2.0625,-0.031 23.1411,-0.5846 43.8019,-10.975 58.0313,-27.1563 -0.1495,-24.7229 -2.4888,-80.2076 -20.0938,-97.8125 -10,-10 -25.76,-15 -40,-15 z" style="marker:none" id="path6300" fill="#f80" fill-opacity="1" fill-rule="nonzero" stroke="none" stroke-width="2" color="#000" display="inline" enable-background="accumulate" overflow="visible" visibility="visible"/><path d="m -1252,-1723.6378 c 8.6367,-7.308 20.608,-12 32,-12 11.392,0 23.3633,4.692 32,12 13,11 8,31 8,31 0,0 -4,15 -40,15 -36,0 -40,-15 -40,-15 0,0 -5,-20 8,-31 z" style="marker:none" id="path6302" fill="#fafafa" fill-opacity="1" fill-rule="nonzero" stroke="none" stroke-width="2" color="#000" display="inline" enable-background="accumulate" overflow="visible" visibility="visible"/><path id="path6304" fill="#f80" fill-opacity="1" stroke="none" stroke-width="10" d="m -1220,-1417.625 c -49.6464,0 -90,40.3536 -90,90 0,5.4402 0.5057,10.7605 1.4375,15.9375 l 9.8125,-1.75 c -0.8177,-4.6025 -1.25,-9.3418 -1.25,-14.1875 0,-44.242 35.758,-80 80,-80 44.242,0 80,35.758 80,80 0,4.7801 -0.4223,9.4562 -1.2188,14 l 5.2188,0 0,1.3438 4.5938,0.5624 c 0.9275,-5.1657 1.4062,-10.4786 1.4062,-15.9062 0,-49.6464 -40.3536,-90 -90,-90 z" baseline-shift="baseline" color="#000" direction="ltr" display="inline" enable-background="accumulate" font-family="Sans" font-size="medium" font-stretch="normal" font-style="normal" font-variant="normal" font-weight="normal" letter-spacing="normal" overflow="visible" text-anchor="start" text-decoration="none" transform="translate(0,-360)" visibility="visible" word-spacing="normal" writing-mode="lr-tb" style="text-indent:0;text-align:start;line-height:normal;text-transform:none;block-progression:tb;marker:none;-inkscape-font-specification:Sans"/><path font-size="medium" style="text-indent:0;text-align:start;line-height:normal;text-transform:none;block-progression:tb;marker:none;-inkscape-font-specification:Sans" id="path6306" fill="#f80" fill-opacity="1" fill-rule="nonzero" stroke="none" stroke-width="5" d="m -1060.3438,-1725.125 c -1.1902,0.1653 -2.1562,1.298 -2.1562,2.5 l 0,15 c -17.4827,0 -35.0601,0 -52.5,0 -2.7614,0 -5,2.2386 -5,5 l 0,30 c 0,2.7614 2.2386,5 5,5 l 52.5,0 0,15 c 0,1.0169 0.6709,1.9916 1.625,2.3438 0.9541,0.3514 2.1231,0.057 2.7812,-0.7188 l 32.5938,-34.625 c 0.7665,-0.8962 0.7665,-3.1038 0,-4 l -32.5938,-34.625 c -0.5381,-0.6444 -1.4176,-0.9863 -2.25,-0.875 z" baseline-shift="baseline" color="#000" direction="ltr" display="inline" enable-background="accumulate" font-family="Sans" font-stretch="normal" font-style="normal" font-variant="normal" font-weight="normal" letter-spacing="normal" overflow="visible" text-anchor="start" text-decoration="none" visibility="visible" word-spacing="normal" writing-mode="lr-tb"/><path id="path6308" fill="#f80" fill-opacity="1" stroke="none" stroke-width="5" d="m -1131.4127,-1671.7565 c -0.4867,2.7182 -3.0861,4.5272 -5.8029,4.0393 -2.7181,-0.4867 -4.5272,-3.0848 -4.0393,-5.8029 0.4867,-2.7182 3.0848,-4.5273 5.8029,-4.0392 2.7182,0.4866 4.5273,3.0861 4.0393,5.8028 z" color="#000" display="inline" enable-background="accumulate" overflow="visible" visibility="visible" style="marker:none"/><path id="path6310" fill="#f80" fill-opacity="1" stroke="none" stroke-width="5" d="m -1308.5874,-1671.7625 c -0.4865,-2.7165 1.3211,-5.3165 4.0385,-5.8016 2.7186,-0.4864 5.316,1.3202 5.8016,4.0385 0.4862,2.7186 -1.3201,5.3162 -4.0386,5.8016 -2.7164,0.4863 -5.317,-1.3212 -5.8015,-4.0385 z" color="#000" display="inline" enable-background="accumulate" overflow="visible" visibility="visible" style="marker:none"/><path id="path6312" fill="#f80" fill-opacity="1" fill-rule="nonzero" stroke="none" stroke-width="5" d="m -1219,-1327.6378 c 0,0.5523 -0.4477,1 -1,1 -0.5523,0 -1,-0.4477 -1,-1 0,-0.5523 0.4477,-1 1,-1 0.5523,0 1,0.4477 1,1 z" color="#000" display="inline" enable-background="accumulate" overflow="visible" transform="translate(0,-360)" visibility="visible" style="marker:none"/><path id="path6314" fill="#f80" fill-opacity="1" fill-rule="nonzero" stroke="none" stroke-width="2" d="m -1220,-1747.625 c -14.24,0 -30,5 -40,15 -17.605,17.6049 -19.9443,73.0896 -20.0937,97.8125 14.2293,16.1813 34.8901,26.5717 58.0312,27.1563 0.687,0.017 1.3712,0.031 2.0625,0.031 0.6913,0 1.3755,-0.014 2.0625,-0.031 23.1411,-0.5846 43.8019,-10.975 58.0313,-27.1563 -0.1495,-24.7229 -2.4888,-80.2076 -20.0938,-97.8125 -10,-10 -25.76,-15 -40,-15 z" color="#000" display="inline" enable-background="accumulate" overflow="visible" visibility="visible" style="marker:none"/><path id="path6316" fill="#fafafa" fill-opacity="1" fill-rule="nonzero" stroke="none" stroke-width="2" d="m -1252,-1723.6378 c 8.6367,-7.308 20.608,-12 32,-12 11.392,0 23.3633,4.692 32,12 13,11 8,31 8,31 0,0 -4,15 -40,15 -36,0 -40,-15 -40,-15 0,0 -5,-20 8,-31 z" color="#000" display="inline" enable-background="accumulate" overflow="visible" visibility="visible" style="marker:none"/><path id="path6318" fill="#f80" fill-opacity="1" stroke="none" stroke-width="10" d="m -1220,-1417.625 c -49.6464,0 -90,40.3536 -90,90 0,5.4402 0.5057,10.7605 1.4375,15.9375 l 9.8125,-1.75 c -0.8177,-4.6025 -1.25,-9.3418 -1.25,-14.1875 0,-44.242 35.758,-80 80,-80 44.242,0 80,35.758 80,80 0,4.7801 -0.4223,9.4562 -1.2188,14 l 5.2188,0 0,1.3438 4.5938,0.5624 c 0.9275,-5.1657 1.4062,-10.4786 1.4062,-15.9062 0,-49.6464 -40.3536,-90 -90,-90 z" baseline-shift="baseline" color="#000" direction="ltr" display="inline" enable-background="accumulate" font-family="Sans" font-size="medium" font-stretch="normal" font-style="normal" font-variant="normal" font-weight="normal" letter-spacing="normal" overflow="visible" text-anchor="start" text-decoration="none" transform="translate(0,-360)" visibility="visible" word-spacing="normal" writing-mode="lr-tb" style="text-indent:0;text-align:start;line-height:normal;text-transform:none;block-progression:tb;marker:none;-inkscape-font-specification:Sans"/><path font-size="medium" style="text-indent:0;text-align:start;line-height:normal;text-transform:none;block-progression:tb;marker:none;-inkscape-font-specification:Sans" id="path6320" fill="#f80" fill-opacity="1" fill-rule="nonzero" stroke="none" stroke-width="5" d="m -1379.6562,-1650.155 c 1.1902,-0.1653 2.1562,-1.298 2.1562,-2.5 l 0,-15 c 17.4827,0 35.0601,0 52.5,0 2.7614,0 5,-2.2386 5,-5 l 0,-30 c 0,-2.7614 -2.2386,-5 -5,-5 l -52.5,0 0,-15 c 0,-1.0169 -0.6709,-1.9916 -1.625,-2.3438 -0.9541,-0.3514 -2.1231,-0.057 -2.7812,0.7188 l -32.5938,34.625 c -0.7665,0.8962 -0.7665,3.1038 0,4 l 32.5938,34.625 c 0.5381,0.6444 1.4176,0.9863 2.25,0.875 z" baseline-shift="baseline" color="#000" direction="ltr" display="inline" enable-background="accumulate" font-family="Sans" font-stretch="normal" font-style="normal" font-variant="normal" font-weight="normal" letter-spacing="normal" overflow="visible" text-anchor="start" text-decoration="none" visibility="visible" word-spacing="normal" writing-mode="lr-tb"/><path id="path6322" fill="#f80" fill-opacity="1" stroke="none" stroke-width="5" d="m -1131.4127,-1671.7565 c -0.4867,2.7182 -3.0861,4.5272 -5.8029,4.0393 -2.7181,-0.4867 -4.5272,-3.0848 -4.0393,-5.8029 0.4867,-2.7182 3.0848,-4.5273 5.8029,-4.0392 2.7182,0.4866 4.5273,3.0861 4.0393,5.8028 z" color="#000" display="inline" enable-background="accumulate" overflow="visible" visibility="visible" style="marker:none"/><path id="path6324" fill="#f80" fill-opacity="1" stroke="none" stroke-width="5" d="m -1308.5874,-1671.7625 c -0.4865,-2.7165 1.3211,-5.3165 4.0385,-5.8016 2.7186,-0.4864 5.316,1.3202 5.8016,4.0385 0.4862,2.7186 -1.3201,5.3162 -4.0386,5.8016 -2.7164,0.4863 -5.317,-1.3212 -5.8015,-4.0385 z" color="#000" display="inline" enable-background="accumulate" overflow="visible" visibility="visible" style="marker:none"/></g><text font-stretch="normal" style="line-height:125%;-inkscape-font-specification:Roboto" id="text6326" x="94.373" y="1048.155" fill="#fafafa" fill-opacity="1" stroke="none" font-family="Roboto" font-size="40" font-style="normal" font-variant="normal" font-weight="normal" letter-spacing="0" word-spacing="0" xml:space="preserve"><tspan id="tspan6328" x="94.373" y="1048.155" fill="#fafafa" fill-opacity="1" font-weight="bold" style="-inkscape-font-specification:Roboto Bold">1</tspan></text></g><g id="g5012" transform="translate(0.83275522,-4)"><g id="g6350" transform="matrix(0.52777778,0,0,0.52777778,1274.5682,1610.1265)"><path d="m -1220,-1207.625 c -14.24,0 -30,5 -40,15 -17.605,17.6049 -19.9443,73.0896 -20.0937,97.8125 14.2293,16.1813 34.8901,26.5717 58.0312,27.1563 0.687,0.017 1.3712,0.031 2.0625,0.031 0.6913,0 1.3755,-0.014 2.0625,-0.031 23.1411,-0.5846 43.8019,-10.975 58.0313,-27.1563 -0.1495,-24.7229 -2.4888,-80.2076 -20.0938,-97.8125 -10,-10 -25.76,-15 -40,-15 z" style="marker:none" id="path6352" fill="#f80" fill-opacity="1" fill-rule="nonzero" stroke="none" stroke-width="2" color="#000" display="inline" enable-background="accumulate" overflow="visible" visibility="visible"/><path d="m -1252,-1183.6378 c 8.6367,-7.308 20.608,-12 32,-12 11.392,0 23.3633,4.692 32,12 13,11 8,31 8,31 0,0 -4,15 -40,15 -36,0 -40,-15 -40,-15 0,0 -5,-20 8,-31 z" style="marker:none" id="path6354" fill="#fafafa" fill-opacity="1" fill-rule="nonzero" stroke="none" stroke-width="2" color="#000" display="inline" enable-background="accumulate" overflow="visible" visibility="visible"/><path id="path6356" fill="#f80" fill-opacity="1" stroke="none" stroke-width="10" d="m -1220,-1237.625 c -49.6464,0 -90,40.3536 -90,90 0,49.6464 40.3536,90 90,90 49.6464,0 90,-40.3536 90,-90 0,-49.6464 -40.3536,-90 -90,-90 z m 0,10 c 44.242,0 80,35.758 80,80 0,44.242 -35.758,80 -80,80 -44.242,0 -80,-35.758 -80,-80 0,-44.242 35.758,-80 80,-80 z" baseline-shift="baseline" color="#000" direction="ltr" display="inline" enable-background="accumulate" font-family="Sans" font-size="medium" font-stretch="normal" font-style="normal" font-variant="normal" font-weight="normal" letter-spacing="normal" overflow="visible" text-anchor="start" text-decoration="none" visibility="visible" word-spacing="normal" writing-mode="lr-tb" style="text-indent:0;text-align:start;line-height:normal;text-transform:none;block-progression:tb;marker:none;-inkscape-font-specification:Sans"/></g><text font-stretch="normal" style="line-height:125%;-inkscape-font-specification:Roboto" id="text6358" x="619.527" y="1048.155" fill="#fafafa" fill-opacity="1" stroke="none" font-family="Roboto" font-size="40" font-style="normal" font-variant="normal" font-weight="normal" letter-spacing="0" word-spacing="0" xml:space="preserve"><tspan id="tspan6360" x="619.527" y="1048.155" fill="#fafafa" fill-opacity="1" font-weight="bold" style="-inkscape-font-specification:Roboto Bold">3</tspan></text></g></g></svg>